M48
METRIC
T1C0.800
T2C1.000
%
G90
G05
T1
X157.5Y-107.0
X157.5Y-112.0
T2
X149.0Y-108.46
X149.0Y-111.0
X150.28Y-76.1
X150.28Y-101.5
X152.82Y-76.1
X152.82Y-101.5
X155.36Y-76.1
X155.36Y-101.5
X157.9Y-76.1
X157.9Y-101.5
X160.44Y-76.1
X160.44Y-101.5
X162.98Y-76.1
X162.98Y-101.5
X165.52Y-76.1
X165.52Y-101.5
X168.06Y-76.1
X168.06Y-101.5
X170.6Y-76.1
X170.6Y-101.5
X173.14Y-76.1
X173.14Y-101.5
X175.68Y-76.1
X175.68Y-101.5
X177.5Y-109.5
X178.22Y-76.1
X178.22Y-101.5
X180.04Y-109.5
X180.76Y-76.1
X180.76Y-101.5
X183.3Y-76.1
X183.3Y-101.5
X185.84Y-76.1
X185.84Y-101.5
X186.96Y-109.5
X188.38Y-76.1
X188.38Y-101.5
X189.5Y-109.5
X190.92Y-76.1
X190.92Y-101.5
X192.04Y-109.5
X193.46Y-76.1
X193.46Y-101.5
X194.58Y-109.5
X196.0Y-76.1
X196.0Y-101.5
M30
