%TF.GenerationSoftware,KiCad,Pcbnew,8.0.6*%
%TF.CreationDate,2025-06-18T14:26:32+02:00*%
%TF.ProjectId,Carte _lec Lum,43617274-6520-4e96-9c65-63204c756d2e,rev?*%
%TF.SameCoordinates,Original*%
%TF.FileFunction,Copper,L2,Bot*%
%TF.FilePolarity,Positive*%
%FSLAX46Y46*%
G04 Gerber Fmt 4.6, Leading zero omitted, Abs format (unit mm)*
G04 Created by KiCad (PCBNEW 8.0.6) date 2025-06-18 14:26:32*
%MOMM*%
%LPD*%
G01*
G04 APERTURE LIST*
%TA.AperFunction,ComponentPad*%
%ADD10R,1.800000X2.200000*%
%TD*%
%TA.AperFunction,ComponentPad*%
%ADD11O,1.800000X2.200000*%
%TD*%
%TA.AperFunction,ComponentPad*%
%ADD12R,1.600000X2.000000*%
%TD*%
%TA.AperFunction,ComponentPad*%
%ADD13O,1.600000X2.000000*%
%TD*%
%TA.AperFunction,ComponentPad*%
%ADD14C,1.800000*%
%TD*%
%TA.AperFunction,ComponentPad*%
%ADD15R,2.200000X1.800000*%
%TD*%
%TA.AperFunction,ComponentPad*%
%ADD16O,2.200000X1.800000*%
%TD*%
%TA.AperFunction,ViaPad*%
%ADD17C,4.500000*%
%TD*%
%TA.AperFunction,Conductor*%
%ADD18C,0.900000*%
%TD*%
G04 APERTURE END LIST*
D10*
%TO.P,J2,1,Pin_1*%
%TO.N,5V+*%
X180040000Y-109500000D03*
D11*
%TO.P,J2,2,Pin_2*%
%TO.N,GND*%
X177500000Y-109500000D03*
%TD*%
D10*
%TO.P,J1,1,Pin_1*%
%TO.N,GND*%
X186960000Y-109500000D03*
D11*
%TO.P,J1,2,Pin_2*%
%TO.N,DI*%
X189500000Y-109500000D03*
%TO.P,J1,3,Pin_3*%
%TO.N,CI*%
X192040000Y-109500000D03*
%TO.P,J1,4,Pin_4*%
%TO.N,5V*%
X194580000Y-109500000D03*
%TD*%
D12*
%TO.P,U1,1,3.3V*%
%TO.N,unconnected-(U1-3.3V-Pad1)*%
X150280000Y-101500000D03*
D13*
%TO.P,U1,2,EN*%
%TO.N,unconnected-(U1-EN-Pad2)*%
X152820000Y-101500000D03*
%TO.P,U1,3,VP*%
%TO.N,unconnected-(U1-VP-Pad3)*%
X155360000Y-101500000D03*
%TO.P,U1,4,VN*%
%TO.N,unconnected-(U1-VN-Pad4)*%
X157900000Y-101500000D03*
%TO.P,U1,5,GPIO34*%
%TO.N,unconnected-(U1-GPIO34-Pad5)*%
X160440000Y-101500000D03*
%TO.P,U1,6,GPIO35*%
%TO.N,unconnected-(U1-GPIO35-Pad6)*%
X162980000Y-101500000D03*
%TO.P,U1,7,GPIO32*%
%TO.N,unconnected-(U1-GPIO32-Pad7)*%
X165520000Y-101500000D03*
%TO.P,U1,8,GPIO33*%
%TO.N,unconnected-(U1-GPIO33-Pad8)*%
X168060000Y-101500000D03*
%TO.P,U1,9,GPIO25*%
%TO.N,unconnected-(U1-GPIO25-Pad9)*%
X170600000Y-101500000D03*
%TO.P,U1,10,GPIO26*%
%TO.N,unconnected-(U1-GPIO26-Pad10)*%
X173140000Y-101500000D03*
%TO.P,U1,11,GPIO27*%
%TO.N,unconnected-(U1-GPIO27-Pad11)*%
X175680000Y-101500000D03*
%TO.P,U1,12,GPIO14*%
%TO.N,unconnected-(U1-GPIO14-Pad12)*%
X178220000Y-101500000D03*
%TO.P,U1,13,GPIO12*%
%TO.N,unconnected-(U1-GPIO12-Pad13)*%
X180760000Y-101500000D03*
%TO.P,U1,14,GND*%
%TO.N,unconnected-(U1-GND-Pad14)*%
X183300000Y-101500000D03*
%TO.P,U1,15,GPIO13*%
%TO.N,unconnected-(U1-GPIO13-Pad15)*%
X185840000Y-101500000D03*
%TO.P,U1,16,D2_DNC*%
%TO.N,unconnected-(U1-D2_DNC-Pad16)*%
X188380000Y-101500000D03*
%TO.P,U1,17,D3_DNC*%
%TO.N,unconnected-(U1-D3_DNC-Pad17)*%
X190920000Y-101500000D03*
%TO.P,U1,18,CMD_DNC*%
%TO.N,CI*%
X193460000Y-101500000D03*
%TO.P,U1,19,5V*%
%TO.N,5V*%
X196000000Y-101500000D03*
%TO.P,U1,20,CLK_DNC*%
%TO.N,unconnected-(U1-CLK_DNC-Pad20)*%
X196000000Y-76100000D03*
%TO.P,U1,21,D0_DNC*%
%TO.N,unconnected-(U1-D0_DNC-Pad21)*%
X193460000Y-76100000D03*
%TO.P,U1,22,D1_DNC*%
%TO.N,unconnected-(U1-D1_DNC-Pad22)*%
X190920000Y-76100000D03*
%TO.P,U1,23,GPIO15*%
%TO.N,DI*%
X188380000Y-76100000D03*
%TO.P,U1,24,GPIO02*%
%TO.N,unconnected-(U1-GPIO02-Pad24)*%
X185840000Y-76100000D03*
%TO.P,U1,25,GPIO00*%
%TO.N,unconnected-(U1-GPIO00-Pad25)*%
X183300000Y-76100000D03*
%TO.P,U1,26,GPIO04*%
%TO.N,unconnected-(U1-GPIO04-Pad26)*%
X180760000Y-76100000D03*
%TO.P,U1,27,GPIO16*%
%TO.N,unconnected-(U1-GPIO16-Pad27)*%
X178220000Y-76100000D03*
%TO.P,U1,28,GPIO17*%
%TO.N,unconnected-(U1-GPIO17-Pad28)*%
X175680000Y-76100000D03*
%TO.P,U1,29,GPIO05*%
%TO.N,unconnected-(U1-GPIO05-Pad29)*%
X173140000Y-76100000D03*
%TO.P,U1,30,GPIO18*%
%TO.N,unconnected-(U1-GPIO18-Pad30)*%
X170600000Y-76100000D03*
%TO.P,U1,31,GPIO19*%
%TO.N,unconnected-(U1-GPIO19-Pad31)*%
X168060000Y-76100000D03*
%TO.P,U1,32,GND*%
%TO.N,unconnected-(U1-GND-Pad32)*%
X165520000Y-76100000D03*
%TO.P,U1,33,GPIO21*%
%TO.N,unconnected-(U1-GPIO21-Pad33)*%
X162980000Y-76100000D03*
%TO.P,U1,34,GPIO03*%
%TO.N,unconnected-(U1-GPIO03-Pad34)*%
X160440000Y-76100000D03*
%TO.P,U1,35,GPIO01*%
%TO.N,unconnected-(U1-GPIO01-Pad35)*%
X157900000Y-76100000D03*
%TO.P,U1,36,GPIO22*%
%TO.N,unconnected-(U1-GPIO22-Pad36)*%
X155360000Y-76100000D03*
%TO.P,U1,37,GPIO23*%
%TO.N,unconnected-(U1-GPIO23-Pad37)*%
X152820000Y-76100000D03*
%TO.P,U1,38,GND*%
%TO.N,GND*%
X150280000Y-76100000D03*
%TD*%
D14*
%TO.P,C5,1*%
%TO.N,5V+*%
X157500000Y-112000000D03*
%TO.P,C5,2*%
%TO.N,GND*%
X157500000Y-107000000D03*
%TD*%
D15*
%TO.P,J3,1,Pin_1*%
%TO.N,5V+*%
X149000000Y-111000000D03*
D16*
%TO.P,J3,2,Pin_2*%
%TO.N,GND*%
X149000000Y-108460000D03*
%TD*%
D17*
%TO.N,*%
X197250000Y-71950000D03*
X143750000Y-115250000D03*
%TO.N,DI*%
X197250000Y-115250000D03*
X143750000Y-71950000D03*
%TD*%
D18*
%TO.N,5V+*%
X149000000Y-111000000D02*
X150000000Y-112000000D01*
X180040000Y-111500000D02*
X180040000Y-109500000D01*
X150000000Y-112000000D02*
X157500000Y-112000000D01*
X179540000Y-112000000D02*
X180040000Y-111500000D01*
X157500000Y-112000000D02*
X179540000Y-112000000D01*
%TO.N,5V*%
X196000000Y-108080000D02*
X196000000Y-101500000D01*
X194580000Y-109500000D02*
X196000000Y-108080000D01*
%TO.N,CI*%
X192040000Y-107900000D02*
X193460000Y-106480000D01*
X192040000Y-109500000D02*
X192040000Y-107900000D01*
X193460000Y-106480000D02*
X193460000Y-101500000D01*
%TO.N,DI*%
X189500000Y-111500000D02*
X190000000Y-112000000D01*
X188380000Y-78880000D02*
X188380000Y-76100000D01*
X198500000Y-109500000D02*
X198500000Y-89000000D01*
X198500000Y-89000000D02*
X188380000Y-78880000D01*
X190000000Y-112000000D02*
X196000000Y-112000000D01*
X189500000Y-109500000D02*
X189500000Y-111500000D01*
X196000000Y-112000000D02*
X198500000Y-109500000D01*
%TD*%
%TA.AperFunction,Conductor*%
%TO.N,GND*%
G36*
X195377382Y-69720185D02*
G01*
X195423137Y-69772989D01*
X195433081Y-69842147D01*
X195404056Y-69905703D01*
X195398024Y-69912181D01*
X195187460Y-70122744D01*
X194982251Y-70384673D01*
X194810101Y-70669445D01*
X194810100Y-70669447D01*
X194673536Y-70972880D01*
X194673530Y-70972895D01*
X194574546Y-71290550D01*
X194514563Y-71617863D01*
X194494473Y-71950000D01*
X194514563Y-72282136D01*
X194514563Y-72282141D01*
X194514564Y-72282142D01*
X194574544Y-72609441D01*
X194574545Y-72609445D01*
X194574546Y-72609449D01*
X194673530Y-72927104D01*
X194673534Y-72927116D01*
X194673537Y-72927123D01*
X194810102Y-73230557D01*
X194982246Y-73515318D01*
X194982251Y-73515326D01*
X195187460Y-73777255D01*
X195422744Y-74012539D01*
X195684673Y-74217748D01*
X195684678Y-74217751D01*
X195684682Y-74217754D01*
X195938940Y-74371458D01*
X195986128Y-74422986D01*
X195997966Y-74491845D01*
X195970697Y-74556174D01*
X195912978Y-74595548D01*
X195894188Y-74600048D01*
X195695465Y-74631522D01*
X195500776Y-74694781D01*
X195318386Y-74787715D01*
X195152786Y-74908028D01*
X195008028Y-75052786D01*
X194887715Y-75218386D01*
X194840485Y-75311080D01*
X194792510Y-75361876D01*
X194724689Y-75378671D01*
X194658554Y-75356134D01*
X194619515Y-75311080D01*
X194615305Y-75302818D01*
X194572287Y-75218390D01*
X194564556Y-75207749D01*
X194451971Y-75052786D01*
X194307213Y-74908028D01*
X194141613Y-74787715D01*
X194141612Y-74787714D01*
X194141610Y-74787713D01*
X194084653Y-74758691D01*
X193959223Y-74694781D01*
X193764534Y-74631522D01*
X193589995Y-74603878D01*
X193562352Y-74599500D01*
X193357648Y-74599500D01*
X193333329Y-74603351D01*
X193155465Y-74631522D01*
X192960776Y-74694781D01*
X192778386Y-74787715D01*
X192612786Y-74908028D01*
X192468028Y-75052786D01*
X192347715Y-75218386D01*
X192300485Y-75311080D01*
X192252510Y-75361876D01*
X192184689Y-75378671D01*
X192118554Y-75356134D01*
X192079515Y-75311080D01*
X192075305Y-75302818D01*
X192032287Y-75218390D01*
X192024556Y-75207749D01*
X191911971Y-75052786D01*
X191767213Y-74908028D01*
X191601613Y-74787715D01*
X191601612Y-74787714D01*
X191601610Y-74787713D01*
X191544653Y-74758691D01*
X191419223Y-74694781D01*
X191224534Y-74631522D01*
X191049995Y-74603878D01*
X191022352Y-74599500D01*
X190817648Y-74599500D01*
X190793329Y-74603351D01*
X190615465Y-74631522D01*
X190420776Y-74694781D01*
X190238386Y-74787715D01*
X190072786Y-74908028D01*
X189928028Y-75052786D01*
X189807715Y-75218386D01*
X189760485Y-75311080D01*
X189712510Y-75361876D01*
X189644689Y-75378671D01*
X189578554Y-75356134D01*
X189539515Y-75311080D01*
X189535305Y-75302818D01*
X189492287Y-75218390D01*
X189484556Y-75207749D01*
X189371971Y-75052786D01*
X189227213Y-74908028D01*
X189061613Y-74787715D01*
X189061612Y-74787714D01*
X189061610Y-74787713D01*
X189004653Y-74758691D01*
X188879223Y-74694781D01*
X188684534Y-74631522D01*
X188509995Y-74603878D01*
X188482352Y-74599500D01*
X188277648Y-74599500D01*
X188253329Y-74603351D01*
X188075465Y-74631522D01*
X187880776Y-74694781D01*
X187698386Y-74787715D01*
X187532786Y-74908028D01*
X187388028Y-75052786D01*
X187267715Y-75218386D01*
X187220485Y-75311080D01*
X187172510Y-75361876D01*
X187104689Y-75378671D01*
X187038554Y-75356134D01*
X186999515Y-75311080D01*
X186995305Y-75302818D01*
X186952287Y-75218390D01*
X186944556Y-75207749D01*
X186831971Y-75052786D01*
X186687213Y-74908028D01*
X186521613Y-74787715D01*
X186521612Y-74787714D01*
X186521610Y-74787713D01*
X186464653Y-74758691D01*
X186339223Y-74694781D01*
X186144534Y-74631522D01*
X185969995Y-74603878D01*
X185942352Y-74599500D01*
X185737648Y-74599500D01*
X185713329Y-74603351D01*
X185535465Y-74631522D01*
X185340776Y-74694781D01*
X185158386Y-74787715D01*
X184992786Y-74908028D01*
X184848028Y-75052786D01*
X184727715Y-75218386D01*
X184680485Y-75311080D01*
X184632510Y-75361876D01*
X184564689Y-75378671D01*
X184498554Y-75356134D01*
X184459515Y-75311080D01*
X184455305Y-75302818D01*
X184412287Y-75218390D01*
X184404556Y-75207749D01*
X184291971Y-75052786D01*
X184147213Y-74908028D01*
X183981613Y-74787715D01*
X183981612Y-74787714D01*
X183981610Y-74787713D01*
X183924653Y-74758691D01*
X183799223Y-74694781D01*
X183604534Y-74631522D01*
X183429995Y-74603878D01*
X183402352Y-74599500D01*
X183197648Y-74599500D01*
X183173329Y-74603351D01*
X182995465Y-74631522D01*
X182800776Y-74694781D01*
X182618386Y-74787715D01*
X182452786Y-74908028D01*
X182308028Y-75052786D01*
X182187715Y-75218386D01*
X182140485Y-75311080D01*
X182092510Y-75361876D01*
X182024689Y-75378671D01*
X181958554Y-75356134D01*
X181919515Y-75311080D01*
X181915305Y-75302818D01*
X181872287Y-75218390D01*
X181864556Y-75207749D01*
X181751971Y-75052786D01*
X181607213Y-74908028D01*
X181441613Y-74787715D01*
X181441612Y-74787714D01*
X181441610Y-74787713D01*
X181384653Y-74758691D01*
X181259223Y-74694781D01*
X181064534Y-74631522D01*
X180889995Y-74603878D01*
X180862352Y-74599500D01*
X180657648Y-74599500D01*
X180633329Y-74603351D01*
X180455465Y-74631522D01*
X180260776Y-74694781D01*
X180078386Y-74787715D01*
X179912786Y-74908028D01*
X179768028Y-75052786D01*
X179647715Y-75218386D01*
X179600485Y-75311080D01*
X179552510Y-75361876D01*
X179484689Y-75378671D01*
X179418554Y-75356134D01*
X179379515Y-75311080D01*
X179375305Y-75302818D01*
X179332287Y-75218390D01*
X179324556Y-75207749D01*
X179211971Y-75052786D01*
X179067213Y-74908028D01*
X178901613Y-74787715D01*
X178901612Y-74787714D01*
X178901610Y-74787713D01*
X178844653Y-74758691D01*
X178719223Y-74694781D01*
X178524534Y-74631522D01*
X178349995Y-74603878D01*
X178322352Y-74599500D01*
X178117648Y-74599500D01*
X178093329Y-74603351D01*
X177915465Y-74631522D01*
X177720776Y-74694781D01*
X177538386Y-74787715D01*
X177372786Y-74908028D01*
X177228028Y-75052786D01*
X177107715Y-75218386D01*
X177060485Y-75311080D01*
X177012510Y-75361876D01*
X176944689Y-75378671D01*
X176878554Y-75356134D01*
X176839515Y-75311080D01*
X176835305Y-75302818D01*
X176792287Y-75218390D01*
X176784556Y-75207749D01*
X176671971Y-75052786D01*
X176527213Y-74908028D01*
X176361613Y-74787715D01*
X176361612Y-74787714D01*
X176361610Y-74787713D01*
X176304653Y-74758691D01*
X176179223Y-74694781D01*
X175984534Y-74631522D01*
X175809995Y-74603878D01*
X175782352Y-74599500D01*
X175577648Y-74599500D01*
X175553329Y-74603351D01*
X175375465Y-74631522D01*
X175180776Y-74694781D01*
X174998386Y-74787715D01*
X174832786Y-74908028D01*
X174688028Y-75052786D01*
X174567715Y-75218386D01*
X174520485Y-75311080D01*
X174472510Y-75361876D01*
X174404689Y-75378671D01*
X174338554Y-75356134D01*
X174299515Y-75311080D01*
X174295305Y-75302818D01*
X174252287Y-75218390D01*
X174244556Y-75207749D01*
X174131971Y-75052786D01*
X173987213Y-74908028D01*
X173821613Y-74787715D01*
X173821612Y-74787714D01*
X173821610Y-74787713D01*
X173764653Y-74758691D01*
X173639223Y-74694781D01*
X173444534Y-74631522D01*
X173269995Y-74603878D01*
X173242352Y-74599500D01*
X173037648Y-74599500D01*
X173013329Y-74603351D01*
X172835465Y-74631522D01*
X172640776Y-74694781D01*
X172458386Y-74787715D01*
X172292786Y-74908028D01*
X172148028Y-75052786D01*
X172027715Y-75218386D01*
X171980485Y-75311080D01*
X171932510Y-75361876D01*
X171864689Y-75378671D01*
X171798554Y-75356134D01*
X171759515Y-75311080D01*
X171755305Y-75302818D01*
X171712287Y-75218390D01*
X171704556Y-75207749D01*
X171591971Y-75052786D01*
X171447213Y-74908028D01*
X171281613Y-74787715D01*
X171281612Y-74787714D01*
X171281610Y-74787713D01*
X171224653Y-74758691D01*
X171099223Y-74694781D01*
X170904534Y-74631522D01*
X170729995Y-74603878D01*
X170702352Y-74599500D01*
X170497648Y-74599500D01*
X170473329Y-74603351D01*
X170295465Y-74631522D01*
X170100776Y-74694781D01*
X169918386Y-74787715D01*
X169752786Y-74908028D01*
X169608028Y-75052786D01*
X169487715Y-75218386D01*
X169440485Y-75311080D01*
X169392510Y-75361876D01*
X169324689Y-75378671D01*
X169258554Y-75356134D01*
X169219515Y-75311080D01*
X169215305Y-75302818D01*
X169172287Y-75218390D01*
X169164556Y-75207749D01*
X169051971Y-75052786D01*
X168907213Y-74908028D01*
X168741613Y-74787715D01*
X168741612Y-74787714D01*
X168741610Y-74787713D01*
X168684653Y-74758691D01*
X168559223Y-74694781D01*
X168364534Y-74631522D01*
X168189995Y-74603878D01*
X168162352Y-74599500D01*
X167957648Y-74599500D01*
X167933329Y-74603351D01*
X167755465Y-74631522D01*
X167560776Y-74694781D01*
X167378386Y-74787715D01*
X167212786Y-74908028D01*
X167068028Y-75052786D01*
X166947715Y-75218386D01*
X166900485Y-75311080D01*
X166852510Y-75361876D01*
X166784689Y-75378671D01*
X166718554Y-75356134D01*
X166679515Y-75311080D01*
X166675305Y-75302818D01*
X166632287Y-75218390D01*
X166624556Y-75207749D01*
X166511971Y-75052786D01*
X166367213Y-74908028D01*
X166201613Y-74787715D01*
X166201612Y-74787714D01*
X166201610Y-74787713D01*
X166144653Y-74758691D01*
X166019223Y-74694781D01*
X165824534Y-74631522D01*
X165649995Y-74603878D01*
X165622352Y-74599500D01*
X165417648Y-74599500D01*
X165393329Y-74603351D01*
X165215465Y-74631522D01*
X165020776Y-74694781D01*
X164838386Y-74787715D01*
X164672786Y-74908028D01*
X164528028Y-75052786D01*
X164407715Y-75218386D01*
X164360485Y-75311080D01*
X164312510Y-75361876D01*
X164244689Y-75378671D01*
X164178554Y-75356134D01*
X164139515Y-75311080D01*
X164135305Y-75302818D01*
X164092287Y-75218390D01*
X164084556Y-75207749D01*
X163971971Y-75052786D01*
X163827213Y-74908028D01*
X163661613Y-74787715D01*
X163661612Y-74787714D01*
X163661610Y-74787713D01*
X163604653Y-74758691D01*
X163479223Y-74694781D01*
X163284534Y-74631522D01*
X163109995Y-74603878D01*
X163082352Y-74599500D01*
X162877648Y-74599500D01*
X162853329Y-74603351D01*
X162675465Y-74631522D01*
X162480776Y-74694781D01*
X162298386Y-74787715D01*
X162132786Y-74908028D01*
X161988028Y-75052786D01*
X161867715Y-75218386D01*
X161820485Y-75311080D01*
X161772510Y-75361876D01*
X161704689Y-75378671D01*
X161638554Y-75356134D01*
X161599515Y-75311080D01*
X161595305Y-75302818D01*
X161552287Y-75218390D01*
X161544556Y-75207749D01*
X161431971Y-75052786D01*
X161287213Y-74908028D01*
X161121613Y-74787715D01*
X161121612Y-74787714D01*
X161121610Y-74787713D01*
X161064653Y-74758691D01*
X160939223Y-74694781D01*
X160744534Y-74631522D01*
X160569995Y-74603878D01*
X160542352Y-74599500D01*
X160337648Y-74599500D01*
X160313329Y-74603351D01*
X160135465Y-74631522D01*
X159940776Y-74694781D01*
X159758386Y-74787715D01*
X159592786Y-74908028D01*
X159448028Y-75052786D01*
X159327715Y-75218386D01*
X159280485Y-75311080D01*
X159232510Y-75361876D01*
X159164689Y-75378671D01*
X159098554Y-75356134D01*
X159059515Y-75311080D01*
X159055305Y-75302818D01*
X159012287Y-75218390D01*
X159004556Y-75207749D01*
X158891971Y-75052786D01*
X158747213Y-74908028D01*
X158581613Y-74787715D01*
X158581612Y-74787714D01*
X158581610Y-74787713D01*
X158524653Y-74758691D01*
X158399223Y-74694781D01*
X158204534Y-74631522D01*
X158029995Y-74603878D01*
X158002352Y-74599500D01*
X157797648Y-74599500D01*
X157773329Y-74603351D01*
X157595465Y-74631522D01*
X157400776Y-74694781D01*
X157218386Y-74787715D01*
X157052786Y-74908028D01*
X156908028Y-75052786D01*
X156787715Y-75218386D01*
X156740485Y-75311080D01*
X156692510Y-75361876D01*
X156624689Y-75378671D01*
X156558554Y-75356134D01*
X156519515Y-75311080D01*
X156515305Y-75302818D01*
X156472287Y-75218390D01*
X156464556Y-75207749D01*
X156351971Y-75052786D01*
X156207213Y-74908028D01*
X156041613Y-74787715D01*
X156041612Y-74787714D01*
X156041610Y-74787713D01*
X155984653Y-74758691D01*
X155859223Y-74694781D01*
X155664534Y-74631522D01*
X155489995Y-74603878D01*
X155462352Y-74599500D01*
X155257648Y-74599500D01*
X155233329Y-74603351D01*
X155055465Y-74631522D01*
X154860776Y-74694781D01*
X154678386Y-74787715D01*
X154512786Y-74908028D01*
X154368028Y-75052786D01*
X154247715Y-75218386D01*
X154200485Y-75311080D01*
X154152510Y-75361876D01*
X154084689Y-75378671D01*
X154018554Y-75356134D01*
X153979515Y-75311080D01*
X153975305Y-75302818D01*
X153932287Y-75218390D01*
X153924556Y-75207749D01*
X153811971Y-75052786D01*
X153667213Y-74908028D01*
X153501613Y-74787715D01*
X153501612Y-74787714D01*
X153501610Y-74787713D01*
X153444653Y-74758691D01*
X153319223Y-74694781D01*
X153124534Y-74631522D01*
X152949995Y-74603878D01*
X152922352Y-74599500D01*
X152717648Y-74599500D01*
X152693329Y-74603351D01*
X152515465Y-74631522D01*
X152320776Y-74694781D01*
X152138386Y-74787715D01*
X151972786Y-74908028D01*
X151828028Y-75052786D01*
X151707713Y-75218388D01*
X151664693Y-75302819D01*
X151616719Y-75353614D01*
X151548897Y-75370409D01*
X151482763Y-75347871D01*
X151443724Y-75302818D01*
X151398701Y-75214457D01*
X151277684Y-75047892D01*
X151132107Y-74902315D01*
X150965542Y-74781298D01*
X150782098Y-74687827D01*
X150782095Y-74687826D01*
X150586292Y-74624207D01*
X150534000Y-74615924D01*
X150534000Y-75669297D01*
X150472993Y-75634075D01*
X150345826Y-75600000D01*
X150214174Y-75600000D01*
X150087007Y-75634075D01*
X150026000Y-75669297D01*
X150026000Y-74615924D01*
X149973707Y-74624207D01*
X149777904Y-74687826D01*
X149777901Y-74687827D01*
X149594457Y-74781298D01*
X149427892Y-74902315D01*
X149282315Y-75047892D01*
X149161298Y-75214457D01*
X149067827Y-75397901D01*
X149067826Y-75397904D01*
X149004207Y-75593707D01*
X148972000Y-75797052D01*
X148972000Y-75846000D01*
X149849297Y-75846000D01*
X149814075Y-75907007D01*
X149780000Y-76034174D01*
X149780000Y-76165826D01*
X149814075Y-76292993D01*
X149849297Y-76354000D01*
X148972000Y-76354000D01*
X148972000Y-76402947D01*
X149004207Y-76606292D01*
X149067826Y-76802095D01*
X149067827Y-76802098D01*
X149161298Y-76985542D01*
X149282315Y-77152107D01*
X149427892Y-77297684D01*
X149594457Y-77418701D01*
X149777901Y-77512172D01*
X149777904Y-77512173D01*
X149973708Y-77575793D01*
X150025999Y-77584073D01*
X150026000Y-77584073D01*
X150026000Y-76530702D01*
X150087007Y-76565925D01*
X150214174Y-76600000D01*
X150345826Y-76600000D01*
X150472993Y-76565925D01*
X150534000Y-76530702D01*
X150534000Y-77584073D01*
X150586291Y-77575793D01*
X150782095Y-77512173D01*
X150782098Y-77512172D01*
X150965542Y-77418701D01*
X151132107Y-77297684D01*
X151277684Y-77152107D01*
X151398701Y-76985542D01*
X151443724Y-76897181D01*
X151491699Y-76846385D01*
X151559519Y-76829590D01*
X151625654Y-76852127D01*
X151664694Y-76897181D01*
X151707715Y-76981613D01*
X151828028Y-77147213D01*
X151972786Y-77291971D01*
X152127749Y-77404556D01*
X152138390Y-77412287D01*
X152254607Y-77471503D01*
X152320776Y-77505218D01*
X152320778Y-77505218D01*
X152320781Y-77505220D01*
X152425137Y-77539127D01*
X152515465Y-77568477D01*
X152613934Y-77584073D01*
X152717648Y-77600500D01*
X152717649Y-77600500D01*
X152922351Y-77600500D01*
X152922352Y-77600500D01*
X153124534Y-77568477D01*
X153319219Y-77505220D01*
X153501610Y-77412287D01*
X153594590Y-77344732D01*
X153667213Y-77291971D01*
X153667215Y-77291968D01*
X153667219Y-77291966D01*
X153811966Y-77147219D01*
X153811968Y-77147215D01*
X153811971Y-77147213D01*
X153932284Y-76981614D01*
X153932285Y-76981613D01*
X153932287Y-76981610D01*
X153979516Y-76888917D01*
X154027489Y-76838123D01*
X154095310Y-76821328D01*
X154161445Y-76843865D01*
X154200483Y-76888917D01*
X154244348Y-76975006D01*
X154247715Y-76981614D01*
X154368028Y-77147213D01*
X154512786Y-77291971D01*
X154667749Y-77404556D01*
X154678390Y-77412287D01*
X154794607Y-77471503D01*
X154860776Y-77505218D01*
X154860778Y-77505218D01*
X154860781Y-77505220D01*
X154965137Y-77539127D01*
X155055465Y-77568477D01*
X155153934Y-77584073D01*
X155257648Y-77600500D01*
X155257649Y-77600500D01*
X155462351Y-77600500D01*
X155462352Y-77600500D01*
X155664534Y-77568477D01*
X155859219Y-77505220D01*
X156041610Y-77412287D01*
X156134590Y-77344732D01*
X156207213Y-77291971D01*
X156207215Y-77291968D01*
X156207219Y-77291966D01*
X156351966Y-77147219D01*
X156351968Y-77147215D01*
X156351971Y-77147213D01*
X156472284Y-76981614D01*
X156472285Y-76981613D01*
X156472287Y-76981610D01*
X156519516Y-76888917D01*
X156567489Y-76838123D01*
X156635310Y-76821328D01*
X156701445Y-76843865D01*
X156740483Y-76888917D01*
X156784348Y-76975006D01*
X156787715Y-76981614D01*
X156908028Y-77147213D01*
X157052786Y-77291971D01*
X157207749Y-77404556D01*
X157218390Y-77412287D01*
X157334607Y-77471503D01*
X157400776Y-77505218D01*
X157400778Y-77505218D01*
X157400781Y-77505220D01*
X157505137Y-77539127D01*
X157595465Y-77568477D01*
X157693934Y-77584073D01*
X157797648Y-77600500D01*
X157797649Y-77600500D01*
X158002351Y-77600500D01*
X158002352Y-77600500D01*
X158204534Y-77568477D01*
X158399219Y-77505220D01*
X158581610Y-77412287D01*
X158674590Y-77344732D01*
X158747213Y-77291971D01*
X158747215Y-77291968D01*
X158747219Y-77291966D01*
X158891966Y-77147219D01*
X158891968Y-77147215D01*
X158891971Y-77147213D01*
X159012284Y-76981614D01*
X159012285Y-76981613D01*
X159012287Y-76981610D01*
X159059516Y-76888917D01*
X159107489Y-76838123D01*
X159175310Y-76821328D01*
X159241445Y-76843865D01*
X159280483Y-76888917D01*
X159324348Y-76975006D01*
X159327715Y-76981614D01*
X159448028Y-77147213D01*
X159592786Y-77291971D01*
X159747749Y-77404556D01*
X159758390Y-77412287D01*
X159874607Y-77471503D01*
X159940776Y-77505218D01*
X159940778Y-77505218D01*
X159940781Y-77505220D01*
X160045137Y-77539127D01*
X160135465Y-77568477D01*
X160233934Y-77584073D01*
X160337648Y-77600500D01*
X160337649Y-77600500D01*
X160542351Y-77600500D01*
X160542352Y-77600500D01*
X160744534Y-77568477D01*
X160939219Y-77505220D01*
X161121610Y-77412287D01*
X161214590Y-77344732D01*
X161287213Y-77291971D01*
X161287215Y-77291968D01*
X161287219Y-77291966D01*
X161431966Y-77147219D01*
X161431968Y-77147215D01*
X161431971Y-77147213D01*
X161552284Y-76981614D01*
X161552285Y-76981613D01*
X161552287Y-76981610D01*
X161599516Y-76888917D01*
X161647489Y-76838123D01*
X161715310Y-76821328D01*
X161781445Y-76843865D01*
X161820483Y-76888917D01*
X161864348Y-76975006D01*
X161867715Y-76981614D01*
X161988028Y-77147213D01*
X162132786Y-77291971D01*
X162287749Y-77404556D01*
X162298390Y-77412287D01*
X162414607Y-77471503D01*
X162480776Y-77505218D01*
X162480778Y-77505218D01*
X162480781Y-77505220D01*
X162585137Y-77539127D01*
X162675465Y-77568477D01*
X162773934Y-77584073D01*
X162877648Y-77600500D01*
X162877649Y-77600500D01*
X163082351Y-77600500D01*
X163082352Y-77600500D01*
X163284534Y-77568477D01*
X163479219Y-77505220D01*
X163661610Y-77412287D01*
X163754590Y-77344732D01*
X163827213Y-77291971D01*
X163827215Y-77291968D01*
X163827219Y-77291966D01*
X163971966Y-77147219D01*
X163971968Y-77147215D01*
X163971971Y-77147213D01*
X164092284Y-76981614D01*
X164092285Y-76981613D01*
X164092287Y-76981610D01*
X164139516Y-76888917D01*
X164187489Y-76838123D01*
X164255310Y-76821328D01*
X164321445Y-76843865D01*
X164360483Y-76888917D01*
X164404348Y-76975006D01*
X164407715Y-76981614D01*
X164528028Y-77147213D01*
X164672786Y-77291971D01*
X164827749Y-77404556D01*
X164838390Y-77412287D01*
X164954607Y-77471503D01*
X165020776Y-77505218D01*
X165020778Y-77505218D01*
X165020781Y-77505220D01*
X165125137Y-77539127D01*
X165215465Y-77568477D01*
X165313934Y-77584073D01*
X165417648Y-77600500D01*
X165417649Y-77600500D01*
X165622351Y-77600500D01*
X165622352Y-77600500D01*
X165824534Y-77568477D01*
X166019219Y-77505220D01*
X166201610Y-77412287D01*
X166294590Y-77344732D01*
X166367213Y-77291971D01*
X166367215Y-77291968D01*
X166367219Y-77291966D01*
X166511966Y-77147219D01*
X166511968Y-77147215D01*
X166511971Y-77147213D01*
X166632284Y-76981614D01*
X166632285Y-76981613D01*
X166632287Y-76981610D01*
X166679516Y-76888917D01*
X166727489Y-76838123D01*
X166795310Y-76821328D01*
X166861445Y-76843865D01*
X166900483Y-76888917D01*
X166944348Y-76975006D01*
X166947715Y-76981614D01*
X167068028Y-77147213D01*
X167212786Y-77291971D01*
X167367749Y-77404556D01*
X167378390Y-77412287D01*
X167494607Y-77471503D01*
X167560776Y-77505218D01*
X167560778Y-77505218D01*
X167560781Y-77505220D01*
X167665137Y-77539127D01*
X167755465Y-77568477D01*
X167853934Y-77584073D01*
X167957648Y-77600500D01*
X167957649Y-77600500D01*
X168162351Y-77600500D01*
X168162352Y-77600500D01*
X168364534Y-77568477D01*
X168559219Y-77505220D01*
X168741610Y-77412287D01*
X168834590Y-77344732D01*
X168907213Y-77291971D01*
X168907215Y-77291968D01*
X168907219Y-77291966D01*
X169051966Y-77147219D01*
X169051968Y-77147215D01*
X169051971Y-77147213D01*
X169172284Y-76981614D01*
X169172285Y-76981613D01*
X169172287Y-76981610D01*
X169219516Y-76888917D01*
X169267489Y-76838123D01*
X169335310Y-76821328D01*
X169401445Y-76843865D01*
X169440483Y-76888917D01*
X169484348Y-76975006D01*
X169487715Y-76981614D01*
X169608028Y-77147213D01*
X169752786Y-77291971D01*
X169907749Y-77404556D01*
X169918390Y-77412287D01*
X170034607Y-77471503D01*
X170100776Y-77505218D01*
X170100778Y-77505218D01*
X170100781Y-77505220D01*
X170205137Y-77539127D01*
X170295465Y-77568477D01*
X170393934Y-77584073D01*
X170497648Y-77600500D01*
X170497649Y-77600500D01*
X170702351Y-77600500D01*
X170702352Y-77600500D01*
X170904534Y-77568477D01*
X171099219Y-77505220D01*
X171281610Y-77412287D01*
X171374590Y-77344732D01*
X171447213Y-77291971D01*
X171447215Y-77291968D01*
X171447219Y-77291966D01*
X171591966Y-77147219D01*
X171591968Y-77147215D01*
X171591971Y-77147213D01*
X171712284Y-76981614D01*
X171712285Y-76981613D01*
X171712287Y-76981610D01*
X171759516Y-76888917D01*
X171807489Y-76838123D01*
X171875310Y-76821328D01*
X171941445Y-76843865D01*
X171980483Y-76888917D01*
X172024348Y-76975006D01*
X172027715Y-76981614D01*
X172148028Y-77147213D01*
X172292786Y-77291971D01*
X172447749Y-77404556D01*
X172458390Y-77412287D01*
X172574607Y-77471503D01*
X172640776Y-77505218D01*
X172640778Y-77505218D01*
X172640781Y-77505220D01*
X172745137Y-77539127D01*
X172835465Y-77568477D01*
X172933934Y-77584073D01*
X173037648Y-77600500D01*
X173037649Y-77600500D01*
X173242351Y-77600500D01*
X173242352Y-77600500D01*
X173444534Y-77568477D01*
X173639219Y-77505220D01*
X173821610Y-77412287D01*
X173914590Y-77344732D01*
X173987213Y-77291971D01*
X173987215Y-77291968D01*
X173987219Y-77291966D01*
X174131966Y-77147219D01*
X174131968Y-77147215D01*
X174131971Y-77147213D01*
X174252284Y-76981614D01*
X174252285Y-76981613D01*
X174252287Y-76981610D01*
X174299516Y-76888917D01*
X174347489Y-76838123D01*
X174415310Y-76821328D01*
X174481445Y-76843865D01*
X174520483Y-76888917D01*
X174564348Y-76975006D01*
X174567715Y-76981614D01*
X174688028Y-77147213D01*
X174832786Y-77291971D01*
X174987749Y-77404556D01*
X174998390Y-77412287D01*
X175114607Y-77471503D01*
X175180776Y-77505218D01*
X175180778Y-77505218D01*
X175180781Y-77505220D01*
X175285137Y-77539127D01*
X175375465Y-77568477D01*
X175473934Y-77584073D01*
X175577648Y-77600500D01*
X175577649Y-77600500D01*
X175782351Y-77600500D01*
X175782352Y-77600500D01*
X175984534Y-77568477D01*
X176179219Y-77505220D01*
X176361610Y-77412287D01*
X176454590Y-77344732D01*
X176527213Y-77291971D01*
X176527215Y-77291968D01*
X176527219Y-77291966D01*
X176671966Y-77147219D01*
X176671968Y-77147215D01*
X176671971Y-77147213D01*
X176792284Y-76981614D01*
X176792285Y-76981613D01*
X176792287Y-76981610D01*
X176839516Y-76888917D01*
X176887489Y-76838123D01*
X176955310Y-76821328D01*
X177021445Y-76843865D01*
X177060483Y-76888917D01*
X177104348Y-76975006D01*
X177107715Y-76981614D01*
X177228028Y-77147213D01*
X177372786Y-77291971D01*
X177527749Y-77404556D01*
X177538390Y-77412287D01*
X177654607Y-77471503D01*
X177720776Y-77505218D01*
X177720778Y-77505218D01*
X177720781Y-77505220D01*
X177825137Y-77539127D01*
X177915465Y-77568477D01*
X178013934Y-77584073D01*
X178117648Y-77600500D01*
X178117649Y-77600500D01*
X178322351Y-77600500D01*
X178322352Y-77600500D01*
X178524534Y-77568477D01*
X178719219Y-77505220D01*
X178901610Y-77412287D01*
X178994590Y-77344732D01*
X179067213Y-77291971D01*
X179067215Y-77291968D01*
X179067219Y-77291966D01*
X179211966Y-77147219D01*
X179211968Y-77147215D01*
X179211971Y-77147213D01*
X179332284Y-76981614D01*
X179332285Y-76981613D01*
X179332287Y-76981610D01*
X179379516Y-76888917D01*
X179427489Y-76838123D01*
X179495310Y-76821328D01*
X179561445Y-76843865D01*
X179600483Y-76888917D01*
X179644348Y-76975006D01*
X179647715Y-76981614D01*
X179768028Y-77147213D01*
X179912786Y-77291971D01*
X180067749Y-77404556D01*
X180078390Y-77412287D01*
X180194607Y-77471503D01*
X180260776Y-77505218D01*
X180260778Y-77505218D01*
X180260781Y-77505220D01*
X180365137Y-77539127D01*
X180455465Y-77568477D01*
X180553934Y-77584073D01*
X180657648Y-77600500D01*
X180657649Y-77600500D01*
X180862351Y-77600500D01*
X180862352Y-77600500D01*
X181064534Y-77568477D01*
X181259219Y-77505220D01*
X181441610Y-77412287D01*
X181534590Y-77344732D01*
X181607213Y-77291971D01*
X181607215Y-77291968D01*
X181607219Y-77291966D01*
X181751966Y-77147219D01*
X181751968Y-77147215D01*
X181751971Y-77147213D01*
X181872284Y-76981614D01*
X181872285Y-76981613D01*
X181872287Y-76981610D01*
X181919516Y-76888917D01*
X181967489Y-76838123D01*
X182035310Y-76821328D01*
X182101445Y-76843865D01*
X182140483Y-76888917D01*
X182184348Y-76975006D01*
X182187715Y-76981614D01*
X182308028Y-77147213D01*
X182452786Y-77291971D01*
X182607749Y-77404556D01*
X182618390Y-77412287D01*
X182734607Y-77471503D01*
X182800776Y-77505218D01*
X182800778Y-77505218D01*
X182800781Y-77505220D01*
X182905137Y-77539127D01*
X182995465Y-77568477D01*
X183093934Y-77584073D01*
X183197648Y-77600500D01*
X183197649Y-77600500D01*
X183402351Y-77600500D01*
X183402352Y-77600500D01*
X183604534Y-77568477D01*
X183799219Y-77505220D01*
X183981610Y-77412287D01*
X184074590Y-77344732D01*
X184147213Y-77291971D01*
X184147215Y-77291968D01*
X184147219Y-77291966D01*
X184291966Y-77147219D01*
X184291968Y-77147215D01*
X184291971Y-77147213D01*
X184412284Y-76981614D01*
X184412285Y-76981613D01*
X184412287Y-76981610D01*
X184459516Y-76888917D01*
X184507489Y-76838123D01*
X184575310Y-76821328D01*
X184641445Y-76843865D01*
X184680483Y-76888917D01*
X184724348Y-76975006D01*
X184727715Y-76981614D01*
X184848028Y-77147213D01*
X184992786Y-77291971D01*
X185147749Y-77404556D01*
X185158390Y-77412287D01*
X185274607Y-77471503D01*
X185340776Y-77505218D01*
X185340778Y-77505218D01*
X185340781Y-77505220D01*
X185445137Y-77539127D01*
X185535465Y-77568477D01*
X185633934Y-77584073D01*
X185737648Y-77600500D01*
X185737649Y-77600500D01*
X185942351Y-77600500D01*
X185942352Y-77600500D01*
X186144534Y-77568477D01*
X186339219Y-77505220D01*
X186521610Y-77412287D01*
X186614590Y-77344732D01*
X186687213Y-77291971D01*
X186687215Y-77291968D01*
X186687219Y-77291966D01*
X186831966Y-77147219D01*
X186831968Y-77147215D01*
X186831971Y-77147213D01*
X186952284Y-76981614D01*
X186952285Y-76981613D01*
X186952287Y-76981610D01*
X186999516Y-76888917D01*
X187047489Y-76838123D01*
X187115310Y-76821328D01*
X187181445Y-76843865D01*
X187220483Y-76888917D01*
X187264348Y-76975006D01*
X187267715Y-76981614D01*
X187388028Y-77147213D01*
X187393181Y-77152366D01*
X187426666Y-77213689D01*
X187429500Y-77240047D01*
X187429500Y-78973621D01*
X187466024Y-79157242D01*
X187466027Y-79157251D01*
X187537673Y-79330223D01*
X187537680Y-79330236D01*
X187641697Y-79485907D01*
X187641700Y-79485911D01*
X197513181Y-89357391D01*
X197546666Y-89418714D01*
X197549500Y-89445072D01*
X197549500Y-109054928D01*
X197529815Y-109121967D01*
X197513181Y-109142609D01*
X195642609Y-111013181D01*
X195581286Y-111046666D01*
X195554928Y-111049500D01*
X195486880Y-111049500D01*
X195419841Y-111029815D01*
X195374086Y-110977011D01*
X195364142Y-110907853D01*
X195393167Y-110844297D01*
X195413995Y-110825182D01*
X195492358Y-110768247D01*
X195492356Y-110768247D01*
X195492365Y-110768242D01*
X195648242Y-110612365D01*
X195777815Y-110434022D01*
X195877895Y-110237606D01*
X195946015Y-110027951D01*
X195980500Y-109810222D01*
X195980500Y-109495072D01*
X196000185Y-109428033D01*
X196016819Y-109407391D01*
X196369282Y-109054928D01*
X196738301Y-108685909D01*
X196757165Y-108657678D01*
X196760296Y-108652993D01*
X196842318Y-108530237D01*
X196842318Y-108530236D01*
X196842322Y-108530231D01*
X196913973Y-108357251D01*
X196950500Y-108173616D01*
X196950500Y-102640047D01*
X196970185Y-102573008D01*
X196986819Y-102552366D01*
X196991966Y-102547219D01*
X196991968Y-102547215D01*
X196991971Y-102547213D01*
X197052670Y-102463666D01*
X197112287Y-102381610D01*
X197205220Y-102199219D01*
X197268477Y-102004534D01*
X197300500Y-101802352D01*
X197300500Y-101197648D01*
X197268477Y-100995466D01*
X197205220Y-100800781D01*
X197205218Y-100800778D01*
X197205218Y-100800776D01*
X197159515Y-100711080D01*
X197112287Y-100618390D01*
X197104556Y-100607749D01*
X196991971Y-100452786D01*
X196847213Y-100308028D01*
X196681613Y-100187715D01*
X196681612Y-100187714D01*
X196681610Y-100187713D01*
X196624653Y-100158691D01*
X196499223Y-100094781D01*
X196304534Y-100031522D01*
X196129995Y-100003878D01*
X196102352Y-99999500D01*
X195897648Y-99999500D01*
X195873329Y-100003351D01*
X195695465Y-100031522D01*
X195500776Y-100094781D01*
X195318386Y-100187715D01*
X195152786Y-100308028D01*
X195008028Y-100452786D01*
X194887715Y-100618386D01*
X194840485Y-100711080D01*
X194792510Y-100761876D01*
X194724689Y-100778671D01*
X194658554Y-100756134D01*
X194619515Y-100711080D01*
X194618883Y-100709840D01*
X194572287Y-100618390D01*
X194564556Y-100607749D01*
X194451971Y-100452786D01*
X194307213Y-100308028D01*
X194141613Y-100187715D01*
X194141612Y-100187714D01*
X194141610Y-100187713D01*
X194084653Y-100158691D01*
X193959223Y-100094781D01*
X193764534Y-100031522D01*
X193589995Y-100003878D01*
X193562352Y-99999500D01*
X193357648Y-99999500D01*
X193333329Y-100003351D01*
X193155465Y-100031522D01*
X192960776Y-100094781D01*
X192778386Y-100187715D01*
X192612786Y-100308028D01*
X192468028Y-100452786D01*
X192347715Y-100618386D01*
X192300485Y-100711080D01*
X192252510Y-100761876D01*
X192184689Y-100778671D01*
X192118554Y-100756134D01*
X192079515Y-100711080D01*
X192078883Y-100709840D01*
X192032287Y-100618390D01*
X192024556Y-100607749D01*
X191911971Y-100452786D01*
X191767213Y-100308028D01*
X191601613Y-100187715D01*
X191601612Y-100187714D01*
X191601610Y-100187713D01*
X191544653Y-100158691D01*
X191419223Y-100094781D01*
X191224534Y-100031522D01*
X191049995Y-100003878D01*
X191022352Y-99999500D01*
X190817648Y-99999500D01*
X190793329Y-100003351D01*
X190615465Y-100031522D01*
X190420776Y-100094781D01*
X190238386Y-100187715D01*
X190072786Y-100308028D01*
X189928028Y-100452786D01*
X189807715Y-100618386D01*
X189760485Y-100711080D01*
X189712510Y-100761876D01*
X189644689Y-100778671D01*
X189578554Y-100756134D01*
X189539515Y-100711080D01*
X189538883Y-100709840D01*
X189492287Y-100618390D01*
X189484556Y-100607749D01*
X189371971Y-100452786D01*
X189227213Y-100308028D01*
X189061613Y-100187715D01*
X189061612Y-100187714D01*
X189061610Y-100187713D01*
X189004653Y-100158691D01*
X188879223Y-100094781D01*
X188684534Y-100031522D01*
X188509995Y-100003878D01*
X188482352Y-99999500D01*
X188277648Y-99999500D01*
X188253329Y-100003351D01*
X188075465Y-100031522D01*
X187880776Y-100094781D01*
X187698386Y-100187715D01*
X187532786Y-100308028D01*
X187388028Y-100452786D01*
X187267715Y-100618386D01*
X187220485Y-100711080D01*
X187172510Y-100761876D01*
X187104689Y-100778671D01*
X187038554Y-100756134D01*
X186999515Y-100711080D01*
X186998883Y-100709840D01*
X186952287Y-100618390D01*
X186944556Y-100607749D01*
X186831971Y-100452786D01*
X186687213Y-100308028D01*
X186521613Y-100187715D01*
X186521612Y-100187714D01*
X186521610Y-100187713D01*
X186464653Y-100158691D01*
X186339223Y-100094781D01*
X186144534Y-100031522D01*
X185969995Y-100003878D01*
X185942352Y-99999500D01*
X185737648Y-99999500D01*
X185713329Y-100003351D01*
X185535465Y-100031522D01*
X185340776Y-100094781D01*
X185158386Y-100187715D01*
X184992786Y-100308028D01*
X184848028Y-100452786D01*
X184727715Y-100618386D01*
X184680485Y-100711080D01*
X184632510Y-100761876D01*
X184564689Y-100778671D01*
X184498554Y-100756134D01*
X184459515Y-100711080D01*
X184458883Y-100709840D01*
X184412287Y-100618390D01*
X184404556Y-100607749D01*
X184291971Y-100452786D01*
X184147213Y-100308028D01*
X183981613Y-100187715D01*
X183981612Y-100187714D01*
X183981610Y-100187713D01*
X183924653Y-100158691D01*
X183799223Y-100094781D01*
X183604534Y-100031522D01*
X183429995Y-100003878D01*
X183402352Y-99999500D01*
X183197648Y-99999500D01*
X183173329Y-100003351D01*
X182995465Y-100031522D01*
X182800776Y-100094781D01*
X182618386Y-100187715D01*
X182452786Y-100308028D01*
X182308028Y-100452786D01*
X182187715Y-100618386D01*
X182140485Y-100711080D01*
X182092510Y-100761876D01*
X182024689Y-100778671D01*
X181958554Y-100756134D01*
X181919515Y-100711080D01*
X181918883Y-100709840D01*
X181872287Y-100618390D01*
X181864556Y-100607749D01*
X181751971Y-100452786D01*
X181607213Y-100308028D01*
X181441613Y-100187715D01*
X181441612Y-100187714D01*
X181441610Y-100187713D01*
X181384653Y-100158691D01*
X181259223Y-100094781D01*
X181064534Y-100031522D01*
X180889995Y-100003878D01*
X180862352Y-99999500D01*
X180657648Y-99999500D01*
X180633329Y-100003351D01*
X180455465Y-100031522D01*
X180260776Y-100094781D01*
X180078386Y-100187715D01*
X179912786Y-100308028D01*
X179768028Y-100452786D01*
X179647715Y-100618386D01*
X179600485Y-100711080D01*
X179552510Y-100761876D01*
X179484689Y-100778671D01*
X179418554Y-100756134D01*
X179379515Y-100711080D01*
X179378883Y-100709840D01*
X179332287Y-100618390D01*
X179324556Y-100607749D01*
X179211971Y-100452786D01*
X179067213Y-100308028D01*
X178901613Y-100187715D01*
X178901612Y-100187714D01*
X178901610Y-100187713D01*
X178844653Y-100158691D01*
X178719223Y-100094781D01*
X178524534Y-100031522D01*
X178349995Y-100003878D01*
X178322352Y-99999500D01*
X178117648Y-99999500D01*
X178093329Y-100003351D01*
X177915465Y-100031522D01*
X177720776Y-100094781D01*
X177538386Y-100187715D01*
X177372786Y-100308028D01*
X177228028Y-100452786D01*
X177107715Y-100618386D01*
X177060485Y-100711080D01*
X177012510Y-100761876D01*
X176944689Y-100778671D01*
X176878554Y-100756134D01*
X176839515Y-100711080D01*
X176838883Y-100709840D01*
X176792287Y-100618390D01*
X176784556Y-100607749D01*
X176671971Y-100452786D01*
X176527213Y-100308028D01*
X176361613Y-100187715D01*
X176361612Y-100187714D01*
X176361610Y-100187713D01*
X176304653Y-100158691D01*
X176179223Y-100094781D01*
X175984534Y-100031522D01*
X175809995Y-100003878D01*
X175782352Y-99999500D01*
X175577648Y-99999500D01*
X175553329Y-100003351D01*
X175375465Y-100031522D01*
X175180776Y-100094781D01*
X174998386Y-100187715D01*
X174832786Y-100308028D01*
X174688028Y-100452786D01*
X174567715Y-100618386D01*
X174520485Y-100711080D01*
X174472510Y-100761876D01*
X174404689Y-100778671D01*
X174338554Y-100756134D01*
X174299515Y-100711080D01*
X174298883Y-100709840D01*
X174252287Y-100618390D01*
X174244556Y-100607749D01*
X174131971Y-100452786D01*
X173987213Y-100308028D01*
X173821613Y-100187715D01*
X173821612Y-100187714D01*
X173821610Y-100187713D01*
X173764653Y-100158691D01*
X173639223Y-100094781D01*
X173444534Y-100031522D01*
X173269995Y-100003878D01*
X173242352Y-99999500D01*
X173037648Y-99999500D01*
X173013329Y-100003351D01*
X172835465Y-100031522D01*
X172640776Y-100094781D01*
X172458386Y-100187715D01*
X172292786Y-100308028D01*
X172148028Y-100452786D01*
X172027715Y-100618386D01*
X171980485Y-100711080D01*
X171932510Y-100761876D01*
X171864689Y-100778671D01*
X171798554Y-100756134D01*
X171759515Y-100711080D01*
X171758883Y-100709840D01*
X171712287Y-100618390D01*
X171704556Y-100607749D01*
X171591971Y-100452786D01*
X171447213Y-100308028D01*
X171281613Y-100187715D01*
X171281612Y-100187714D01*
X171281610Y-100187713D01*
X171224653Y-100158691D01*
X171099223Y-100094781D01*
X170904534Y-100031522D01*
X170729995Y-100003878D01*
X170702352Y-99999500D01*
X170497648Y-99999500D01*
X170473329Y-100003351D01*
X170295465Y-100031522D01*
X170100776Y-100094781D01*
X169918386Y-100187715D01*
X169752786Y-100308028D01*
X169608028Y-100452786D01*
X169487715Y-100618386D01*
X169440485Y-100711080D01*
X169392510Y-100761876D01*
X169324689Y-100778671D01*
X169258554Y-100756134D01*
X169219515Y-100711080D01*
X169218883Y-100709840D01*
X169172287Y-100618390D01*
X169164556Y-100607749D01*
X169051971Y-100452786D01*
X168907213Y-100308028D01*
X168741613Y-100187715D01*
X168741612Y-100187714D01*
X168741610Y-100187713D01*
X168684653Y-100158691D01*
X168559223Y-100094781D01*
X168364534Y-100031522D01*
X168189995Y-100003878D01*
X168162352Y-99999500D01*
X167957648Y-99999500D01*
X167933329Y-100003351D01*
X167755465Y-100031522D01*
X167560776Y-100094781D01*
X167378386Y-100187715D01*
X167212786Y-100308028D01*
X167068028Y-100452786D01*
X166947715Y-100618386D01*
X166900485Y-100711080D01*
X166852510Y-100761876D01*
X166784689Y-100778671D01*
X166718554Y-100756134D01*
X166679515Y-100711080D01*
X166678883Y-100709840D01*
X166632287Y-100618390D01*
X166624556Y-100607749D01*
X166511971Y-100452786D01*
X166367213Y-100308028D01*
X166201613Y-100187715D01*
X166201612Y-100187714D01*
X166201610Y-100187713D01*
X166144653Y-100158691D01*
X166019223Y-100094781D01*
X165824534Y-100031522D01*
X165649995Y-100003878D01*
X165622352Y-99999500D01*
X165417648Y-99999500D01*
X165393329Y-100003351D01*
X165215465Y-100031522D01*
X165020776Y-100094781D01*
X164838386Y-100187715D01*
X164672786Y-100308028D01*
X164528028Y-100452786D01*
X164407715Y-100618386D01*
X164360485Y-100711080D01*
X164312510Y-100761876D01*
X164244689Y-100778671D01*
X164178554Y-100756134D01*
X164139515Y-100711080D01*
X164138883Y-100709840D01*
X164092287Y-100618390D01*
X164084556Y-100607749D01*
X163971971Y-100452786D01*
X163827213Y-100308028D01*
X163661613Y-100187715D01*
X163661612Y-100187714D01*
X163661610Y-100187713D01*
X163604653Y-100158691D01*
X163479223Y-100094781D01*
X163284534Y-100031522D01*
X163109995Y-100003878D01*
X163082352Y-99999500D01*
X162877648Y-99999500D01*
X162853329Y-100003351D01*
X162675465Y-100031522D01*
X162480776Y-100094781D01*
X162298386Y-100187715D01*
X162132786Y-100308028D01*
X161988028Y-100452786D01*
X161867715Y-100618386D01*
X161820485Y-100711080D01*
X161772510Y-100761876D01*
X161704689Y-100778671D01*
X161638554Y-100756134D01*
X161599515Y-100711080D01*
X161598883Y-100709840D01*
X161552287Y-100618390D01*
X161544556Y-100607749D01*
X161431971Y-100452786D01*
X161287213Y-100308028D01*
X161121613Y-100187715D01*
X161121612Y-100187714D01*
X161121610Y-100187713D01*
X161064653Y-100158691D01*
X160939223Y-100094781D01*
X160744534Y-100031522D01*
X160569995Y-100003878D01*
X160542352Y-99999500D01*
X160337648Y-99999500D01*
X160313329Y-100003351D01*
X160135465Y-100031522D01*
X159940776Y-100094781D01*
X159758386Y-100187715D01*
X159592786Y-100308028D01*
X159448028Y-100452786D01*
X159327715Y-100618386D01*
X159280485Y-100711080D01*
X159232510Y-100761876D01*
X159164689Y-100778671D01*
X159098554Y-100756134D01*
X159059515Y-100711080D01*
X159058883Y-100709840D01*
X159012287Y-100618390D01*
X159004556Y-100607749D01*
X158891971Y-100452786D01*
X158747213Y-100308028D01*
X158581613Y-100187715D01*
X158581612Y-100187714D01*
X158581610Y-100187713D01*
X158524653Y-100158691D01*
X158399223Y-100094781D01*
X158204534Y-100031522D01*
X158029995Y-100003878D01*
X158002352Y-99999500D01*
X157797648Y-99999500D01*
X157773329Y-100003351D01*
X157595465Y-100031522D01*
X157400776Y-100094781D01*
X157218386Y-100187715D01*
X157052786Y-100308028D01*
X156908028Y-100452786D01*
X156787715Y-100618386D01*
X156740485Y-100711080D01*
X156692510Y-100761876D01*
X156624689Y-100778671D01*
X156558554Y-100756134D01*
X156519515Y-100711080D01*
X156518883Y-100709840D01*
X156472287Y-100618390D01*
X156464556Y-100607749D01*
X156351971Y-100452786D01*
X156207213Y-100308028D01*
X156041613Y-100187715D01*
X156041612Y-100187714D01*
X156041610Y-100187713D01*
X155984653Y-100158691D01*
X155859223Y-100094781D01*
X155664534Y-100031522D01*
X155489995Y-100003878D01*
X155462352Y-99999500D01*
X155257648Y-99999500D01*
X155233329Y-100003351D01*
X155055465Y-100031522D01*
X154860776Y-100094781D01*
X154678386Y-100187715D01*
X154512786Y-100308028D01*
X154368028Y-100452786D01*
X154247715Y-100618386D01*
X154200485Y-100711080D01*
X154152510Y-100761876D01*
X154084689Y-100778671D01*
X154018554Y-100756134D01*
X153979515Y-100711080D01*
X153978883Y-100709840D01*
X153932287Y-100618390D01*
X153924556Y-100607749D01*
X153811971Y-100452786D01*
X153667213Y-100308028D01*
X153501613Y-100187715D01*
X153501612Y-100187714D01*
X153501610Y-100187713D01*
X153444653Y-100158691D01*
X153319223Y-100094781D01*
X153124534Y-100031522D01*
X152949995Y-100003878D01*
X152922352Y-99999500D01*
X152717648Y-99999500D01*
X152693329Y-100003351D01*
X152515465Y-100031522D01*
X152320776Y-100094781D01*
X152138386Y-100187715D01*
X151972786Y-100308028D01*
X151828032Y-100452782D01*
X151801668Y-100489070D01*
X151746338Y-100531735D01*
X151676724Y-100537714D01*
X151614929Y-100505108D01*
X151580572Y-100444269D01*
X151578060Y-100429438D01*
X151577640Y-100425533D01*
X151574091Y-100392517D01*
X151523796Y-100257669D01*
X151523795Y-100257668D01*
X151523793Y-100257664D01*
X151437547Y-100142455D01*
X151437544Y-100142452D01*
X151322335Y-100056206D01*
X151322328Y-100056202D01*
X151187482Y-100005908D01*
X151187483Y-100005908D01*
X151127883Y-99999501D01*
X151127881Y-99999500D01*
X151127873Y-99999500D01*
X151127864Y-99999500D01*
X149432129Y-99999500D01*
X149432123Y-99999501D01*
X149372516Y-100005908D01*
X149237671Y-100056202D01*
X149237664Y-100056206D01*
X149122455Y-100142452D01*
X149122452Y-100142455D01*
X149036206Y-100257664D01*
X149036202Y-100257671D01*
X148985908Y-100392517D01*
X148979501Y-100452116D01*
X148979500Y-100452135D01*
X148979500Y-102547870D01*
X148979501Y-102547876D01*
X148985908Y-102607483D01*
X149036202Y-102742328D01*
X149036206Y-102742335D01*
X149122452Y-102857544D01*
X149122455Y-102857547D01*
X149237664Y-102943793D01*
X149237671Y-102943797D01*
X149372517Y-102994091D01*
X149372516Y-102994091D01*
X149379444Y-102994835D01*
X149432127Y-103000500D01*
X151127872Y-103000499D01*
X151187483Y-102994091D01*
X151322331Y-102943796D01*
X151437546Y-102857546D01*
X151523796Y-102742331D01*
X151574091Y-102607483D01*
X151578061Y-102570556D01*
X151604796Y-102506011D01*
X151662188Y-102466161D01*
X151732013Y-102463666D01*
X151792102Y-102499317D01*
X151801667Y-102510929D01*
X151828032Y-102547217D01*
X151972786Y-102691971D01*
X152127749Y-102804556D01*
X152138390Y-102812287D01*
X152227212Y-102857544D01*
X152320776Y-102905218D01*
X152320778Y-102905218D01*
X152320781Y-102905220D01*
X152425137Y-102939127D01*
X152515465Y-102968477D01*
X152616557Y-102984488D01*
X152717648Y-103000500D01*
X152717649Y-103000500D01*
X152922351Y-103000500D01*
X152922352Y-103000500D01*
X153124534Y-102968477D01*
X153319219Y-102905220D01*
X153501610Y-102812287D01*
X153597901Y-102742328D01*
X153667213Y-102691971D01*
X153667215Y-102691968D01*
X153667219Y-102691966D01*
X153811966Y-102547219D01*
X153811968Y-102547215D01*
X153811971Y-102547213D01*
X153932284Y-102381614D01*
X153932285Y-102381613D01*
X153932287Y-102381610D01*
X153979516Y-102288917D01*
X154027489Y-102238123D01*
X154095310Y-102221328D01*
X154161445Y-102243865D01*
X154200485Y-102288919D01*
X154247715Y-102381614D01*
X154368028Y-102547213D01*
X154512786Y-102691971D01*
X154667749Y-102804556D01*
X154678390Y-102812287D01*
X154767212Y-102857544D01*
X154860776Y-102905218D01*
X154860778Y-102905218D01*
X154860781Y-102905220D01*
X154965137Y-102939127D01*
X155055465Y-102968477D01*
X155156557Y-102984488D01*
X155257648Y-103000500D01*
X155257649Y-103000500D01*
X155462351Y-103000500D01*
X155462352Y-103000500D01*
X155664534Y-102968477D01*
X155859219Y-102905220D01*
X156041610Y-102812287D01*
X156137901Y-102742328D01*
X156207213Y-102691971D01*
X156207215Y-102691968D01*
X156207219Y-102691966D01*
X156351966Y-102547219D01*
X156351968Y-102547215D01*
X156351971Y-102547213D01*
X156472284Y-102381614D01*
X156472285Y-102381613D01*
X156472287Y-102381610D01*
X156519516Y-102288917D01*
X156567489Y-102238123D01*
X156635310Y-102221328D01*
X156701445Y-102243865D01*
X156740485Y-102288919D01*
X156787715Y-102381614D01*
X156908028Y-102547213D01*
X157052786Y-102691971D01*
X157207749Y-102804556D01*
X157218390Y-102812287D01*
X157307212Y-102857544D01*
X157400776Y-102905218D01*
X157400778Y-102905218D01*
X157400781Y-102905220D01*
X157505137Y-102939127D01*
X157595465Y-102968477D01*
X157696557Y-102984488D01*
X157797648Y-103000500D01*
X157797649Y-103000500D01*
X158002351Y-103000500D01*
X158002352Y-103000500D01*
X158204534Y-102968477D01*
X158399219Y-102905220D01*
X158581610Y-102812287D01*
X158677901Y-102742328D01*
X158747213Y-102691971D01*
X158747215Y-102691968D01*
X158747219Y-102691966D01*
X158891966Y-102547219D01*
X158891968Y-102547215D01*
X158891971Y-102547213D01*
X159012284Y-102381614D01*
X159012285Y-102381613D01*
X159012287Y-102381610D01*
X159059516Y-102288917D01*
X159107489Y-102238123D01*
X159175310Y-102221328D01*
X159241445Y-102243865D01*
X159280485Y-102288919D01*
X159327715Y-102381614D01*
X159448028Y-102547213D01*
X159592786Y-102691971D01*
X159747749Y-102804556D01*
X159758390Y-102812287D01*
X159847212Y-102857544D01*
X159940776Y-102905218D01*
X159940778Y-102905218D01*
X159940781Y-102905220D01*
X160045137Y-102939127D01*
X160135465Y-102968477D01*
X160236557Y-102984488D01*
X160337648Y-103000500D01*
X160337649Y-103000500D01*
X160542351Y-103000500D01*
X160542352Y-103000500D01*
X160744534Y-102968477D01*
X160939219Y-102905220D01*
X161121610Y-102812287D01*
X161217901Y-102742328D01*
X161287213Y-102691971D01*
X161287215Y-102691968D01*
X161287219Y-102691966D01*
X161431966Y-102547219D01*
X161431968Y-102547215D01*
X161431971Y-102547213D01*
X161552284Y-102381614D01*
X161552285Y-102381613D01*
X161552287Y-102381610D01*
X161599516Y-102288917D01*
X161647489Y-102238123D01*
X161715310Y-102221328D01*
X161781445Y-102243865D01*
X161820485Y-102288919D01*
X161867715Y-102381614D01*
X161988028Y-102547213D01*
X162132786Y-102691971D01*
X162287749Y-102804556D01*
X162298390Y-102812287D01*
X162387212Y-102857544D01*
X162480776Y-102905218D01*
X162480778Y-102905218D01*
X162480781Y-102905220D01*
X162585137Y-102939127D01*
X162675465Y-102968477D01*
X162776557Y-102984488D01*
X162877648Y-103000500D01*
X162877649Y-103000500D01*
X163082351Y-103000500D01*
X163082352Y-103000500D01*
X163284534Y-102968477D01*
X163479219Y-102905220D01*
X163661610Y-102812287D01*
X163757901Y-102742328D01*
X163827213Y-102691971D01*
X163827215Y-102691968D01*
X163827219Y-102691966D01*
X163971966Y-102547219D01*
X163971968Y-102547215D01*
X163971971Y-102547213D01*
X164092284Y-102381614D01*
X164092285Y-102381613D01*
X164092287Y-102381610D01*
X164139516Y-102288917D01*
X164187489Y-102238123D01*
X164255310Y-102221328D01*
X164321445Y-102243865D01*
X164360485Y-102288919D01*
X164407715Y-102381614D01*
X164528028Y-102547213D01*
X164672786Y-102691971D01*
X164827749Y-102804556D01*
X164838390Y-102812287D01*
X164927212Y-102857544D01*
X165020776Y-102905218D01*
X165020778Y-102905218D01*
X165020781Y-102905220D01*
X165125137Y-102939127D01*
X165215465Y-102968477D01*
X165316557Y-102984488D01*
X165417648Y-103000500D01*
X165417649Y-103000500D01*
X165622351Y-103000500D01*
X165622352Y-103000500D01*
X165824534Y-102968477D01*
X166019219Y-102905220D01*
X166201610Y-102812287D01*
X166297901Y-102742328D01*
X166367213Y-102691971D01*
X166367215Y-102691968D01*
X166367219Y-102691966D01*
X166511966Y-102547219D01*
X166511968Y-102547215D01*
X166511971Y-102547213D01*
X166632284Y-102381614D01*
X166632285Y-102381613D01*
X166632287Y-102381610D01*
X166679516Y-102288917D01*
X166727489Y-102238123D01*
X166795310Y-102221328D01*
X166861445Y-102243865D01*
X166900485Y-102288919D01*
X166947715Y-102381614D01*
X167068028Y-102547213D01*
X167212786Y-102691971D01*
X167367749Y-102804556D01*
X167378390Y-102812287D01*
X167467212Y-102857544D01*
X167560776Y-102905218D01*
X167560778Y-102905218D01*
X167560781Y-102905220D01*
X167665137Y-102939127D01*
X167755465Y-102968477D01*
X167856557Y-102984488D01*
X167957648Y-103000500D01*
X167957649Y-103000500D01*
X168162351Y-103000500D01*
X168162352Y-103000500D01*
X168364534Y-102968477D01*
X168559219Y-102905220D01*
X168741610Y-102812287D01*
X168837901Y-102742328D01*
X168907213Y-102691971D01*
X168907215Y-102691968D01*
X168907219Y-102691966D01*
X169051966Y-102547219D01*
X169051968Y-102547215D01*
X169051971Y-102547213D01*
X169172284Y-102381614D01*
X169172285Y-102381613D01*
X169172287Y-102381610D01*
X169219516Y-102288917D01*
X169267489Y-102238123D01*
X169335310Y-102221328D01*
X169401445Y-102243865D01*
X169440485Y-102288919D01*
X169487715Y-102381614D01*
X169608028Y-102547213D01*
X169752786Y-102691971D01*
X169907749Y-102804556D01*
X169918390Y-102812287D01*
X170007212Y-102857544D01*
X170100776Y-102905218D01*
X170100778Y-102905218D01*
X170100781Y-102905220D01*
X170205137Y-102939127D01*
X170295465Y-102968477D01*
X170396557Y-102984488D01*
X170497648Y-103000500D01*
X170497649Y-103000500D01*
X170702351Y-103000500D01*
X170702352Y-103000500D01*
X170904534Y-102968477D01*
X171099219Y-102905220D01*
X171281610Y-102812287D01*
X171377901Y-102742328D01*
X171447213Y-102691971D01*
X171447215Y-102691968D01*
X171447219Y-102691966D01*
X171591966Y-102547219D01*
X171591968Y-102547215D01*
X171591971Y-102547213D01*
X171712284Y-102381614D01*
X171712285Y-102381613D01*
X171712287Y-102381610D01*
X171759516Y-102288917D01*
X171807489Y-102238123D01*
X171875310Y-102221328D01*
X171941445Y-102243865D01*
X171980485Y-102288919D01*
X172027715Y-102381614D01*
X172148028Y-102547213D01*
X172292786Y-102691971D01*
X172447749Y-102804556D01*
X172458390Y-102812287D01*
X172547212Y-102857544D01*
X172640776Y-102905218D01*
X172640778Y-102905218D01*
X172640781Y-102905220D01*
X172745137Y-102939127D01*
X172835465Y-102968477D01*
X172936557Y-102984488D01*
X173037648Y-103000500D01*
X173037649Y-103000500D01*
X173242351Y-103000500D01*
X173242352Y-103000500D01*
X173444534Y-102968477D01*
X173639219Y-102905220D01*
X173821610Y-102812287D01*
X173917901Y-102742328D01*
X173987213Y-102691971D01*
X173987215Y-102691968D01*
X173987219Y-102691966D01*
X174131966Y-102547219D01*
X174131968Y-102547215D01*
X174131971Y-102547213D01*
X174252284Y-102381614D01*
X174252285Y-102381613D01*
X174252287Y-102381610D01*
X174299516Y-102288917D01*
X174347489Y-102238123D01*
X174415310Y-102221328D01*
X174481445Y-102243865D01*
X174520485Y-102288919D01*
X174567715Y-102381614D01*
X174688028Y-102547213D01*
X174832786Y-102691971D01*
X174987749Y-102804556D01*
X174998390Y-102812287D01*
X175087212Y-102857544D01*
X175180776Y-102905218D01*
X175180778Y-102905218D01*
X175180781Y-102905220D01*
X175285137Y-102939127D01*
X175375465Y-102968477D01*
X175476557Y-102984488D01*
X175577648Y-103000500D01*
X175577649Y-103000500D01*
X175782351Y-103000500D01*
X175782352Y-103000500D01*
X175984534Y-102968477D01*
X176179219Y-102905220D01*
X176361610Y-102812287D01*
X176457901Y-102742328D01*
X176527213Y-102691971D01*
X176527215Y-102691968D01*
X176527219Y-102691966D01*
X176671966Y-102547219D01*
X176671968Y-102547215D01*
X176671971Y-102547213D01*
X176792284Y-102381614D01*
X176792285Y-102381613D01*
X176792287Y-102381610D01*
X176839516Y-102288917D01*
X176887489Y-102238123D01*
X176955310Y-102221328D01*
X177021445Y-102243865D01*
X177060485Y-102288919D01*
X177107715Y-102381614D01*
X177228028Y-102547213D01*
X177372786Y-102691971D01*
X177527749Y-102804556D01*
X177538390Y-102812287D01*
X177627212Y-102857544D01*
X177720776Y-102905218D01*
X177720778Y-102905218D01*
X177720781Y-102905220D01*
X177825137Y-102939127D01*
X177915465Y-102968477D01*
X178016557Y-102984488D01*
X178117648Y-103000500D01*
X178117649Y-103000500D01*
X178322351Y-103000500D01*
X178322352Y-103000500D01*
X178524534Y-102968477D01*
X178719219Y-102905220D01*
X178901610Y-102812287D01*
X178997901Y-102742328D01*
X179067213Y-102691971D01*
X179067215Y-102691968D01*
X179067219Y-102691966D01*
X179211966Y-102547219D01*
X179211968Y-102547215D01*
X179211971Y-102547213D01*
X179332284Y-102381614D01*
X179332285Y-102381613D01*
X179332287Y-102381610D01*
X179379516Y-102288917D01*
X179427489Y-102238123D01*
X179495310Y-102221328D01*
X179561445Y-102243865D01*
X179600485Y-102288919D01*
X179647715Y-102381614D01*
X179768028Y-102547213D01*
X179912786Y-102691971D01*
X180067749Y-102804556D01*
X180078390Y-102812287D01*
X180167212Y-102857544D01*
X180260776Y-102905218D01*
X180260778Y-102905218D01*
X180260781Y-102905220D01*
X180365137Y-102939127D01*
X180455465Y-102968477D01*
X180556557Y-102984488D01*
X180657648Y-103000500D01*
X180657649Y-103000500D01*
X180862351Y-103000500D01*
X180862352Y-103000500D01*
X181064534Y-102968477D01*
X181259219Y-102905220D01*
X181441610Y-102812287D01*
X181537901Y-102742328D01*
X181607213Y-102691971D01*
X181607215Y-102691968D01*
X181607219Y-102691966D01*
X181751966Y-102547219D01*
X181751968Y-102547215D01*
X181751971Y-102547213D01*
X181872284Y-102381614D01*
X181872285Y-102381613D01*
X181872287Y-102381610D01*
X181919516Y-102288917D01*
X181967489Y-102238123D01*
X182035310Y-102221328D01*
X182101445Y-102243865D01*
X182140485Y-102288919D01*
X182187715Y-102381614D01*
X182308028Y-102547213D01*
X182452786Y-102691971D01*
X182607749Y-102804556D01*
X182618390Y-102812287D01*
X182707212Y-102857544D01*
X182800776Y-102905218D01*
X182800778Y-102905218D01*
X182800781Y-102905220D01*
X182905137Y-102939127D01*
X182995465Y-102968477D01*
X183096557Y-102984488D01*
X183197648Y-103000500D01*
X183197649Y-103000500D01*
X183402351Y-103000500D01*
X183402352Y-103000500D01*
X183604534Y-102968477D01*
X183799219Y-102905220D01*
X183981610Y-102812287D01*
X184077901Y-102742328D01*
X184147213Y-102691971D01*
X184147215Y-102691968D01*
X184147219Y-102691966D01*
X184291966Y-102547219D01*
X184291968Y-102547215D01*
X184291971Y-102547213D01*
X184412284Y-102381614D01*
X184412285Y-102381613D01*
X184412287Y-102381610D01*
X184459516Y-102288917D01*
X184507489Y-102238123D01*
X184575310Y-102221328D01*
X184641445Y-102243865D01*
X184680485Y-102288919D01*
X184727715Y-102381614D01*
X184848028Y-102547213D01*
X184992786Y-102691971D01*
X185147749Y-102804556D01*
X185158390Y-102812287D01*
X185247212Y-102857544D01*
X185340776Y-102905218D01*
X185340778Y-102905218D01*
X185340781Y-102905220D01*
X185445137Y-102939127D01*
X185535465Y-102968477D01*
X185636557Y-102984488D01*
X185737648Y-103000500D01*
X185737649Y-103000500D01*
X185942351Y-103000500D01*
X185942352Y-103000500D01*
X186144534Y-102968477D01*
X186339219Y-102905220D01*
X186521610Y-102812287D01*
X186617901Y-102742328D01*
X186687213Y-102691971D01*
X186687215Y-102691968D01*
X186687219Y-102691966D01*
X186831966Y-102547219D01*
X186831968Y-102547215D01*
X186831971Y-102547213D01*
X186952284Y-102381614D01*
X186952285Y-102381613D01*
X186952287Y-102381610D01*
X186999516Y-102288917D01*
X187047489Y-102238123D01*
X187115310Y-102221328D01*
X187181445Y-102243865D01*
X187220485Y-102288919D01*
X187267715Y-102381614D01*
X187388028Y-102547213D01*
X187532786Y-102691971D01*
X187687749Y-102804556D01*
X187698390Y-102812287D01*
X187787212Y-102857544D01*
X187880776Y-102905218D01*
X187880778Y-102905218D01*
X187880781Y-102905220D01*
X187985137Y-102939127D01*
X188075465Y-102968477D01*
X188176557Y-102984488D01*
X188277648Y-103000500D01*
X188277649Y-103000500D01*
X188482351Y-103000500D01*
X188482352Y-103000500D01*
X188684534Y-102968477D01*
X188879219Y-102905220D01*
X189061610Y-102812287D01*
X189157901Y-102742328D01*
X189227213Y-102691971D01*
X189227215Y-102691968D01*
X189227219Y-102691966D01*
X189371966Y-102547219D01*
X189371968Y-102547215D01*
X189371971Y-102547213D01*
X189492284Y-102381614D01*
X189492285Y-102381613D01*
X189492287Y-102381610D01*
X189539516Y-102288917D01*
X189587489Y-102238123D01*
X189655310Y-102221328D01*
X189721445Y-102243865D01*
X189760485Y-102288919D01*
X189807715Y-102381614D01*
X189928028Y-102547213D01*
X190072786Y-102691971D01*
X190227749Y-102804556D01*
X190238390Y-102812287D01*
X190327212Y-102857544D01*
X190420776Y-102905218D01*
X190420778Y-102905218D01*
X190420781Y-102905220D01*
X190525137Y-102939127D01*
X190615465Y-102968477D01*
X190716557Y-102984488D01*
X190817648Y-103000500D01*
X190817649Y-103000500D01*
X191022351Y-103000500D01*
X191022352Y-103000500D01*
X191224534Y-102968477D01*
X191419219Y-102905220D01*
X191601610Y-102812287D01*
X191697901Y-102742328D01*
X191767213Y-102691971D01*
X191767215Y-102691968D01*
X191767219Y-102691966D01*
X191911966Y-102547219D01*
X191911968Y-102547215D01*
X191911971Y-102547213D01*
X192032284Y-102381614D01*
X192032285Y-102381613D01*
X192032287Y-102381610D01*
X192079516Y-102288917D01*
X192127489Y-102238123D01*
X192195310Y-102221328D01*
X192261445Y-102243865D01*
X192300485Y-102288919D01*
X192347715Y-102381614D01*
X192468028Y-102547213D01*
X192473181Y-102552366D01*
X192506666Y-102613689D01*
X192509500Y-102640047D01*
X192509500Y-106034927D01*
X192489815Y-106101966D01*
X192473181Y-106122608D01*
X191301700Y-107294088D01*
X191301697Y-107294092D01*
X191197677Y-107449769D01*
X191197674Y-107449774D01*
X191187604Y-107474089D01*
X191187603Y-107474092D01*
X191126027Y-107622748D01*
X191126025Y-107622756D01*
X191089500Y-107806379D01*
X191089500Y-108218531D01*
X191069815Y-108285570D01*
X191053181Y-108306212D01*
X190971756Y-108387636D01*
X190971752Y-108387641D01*
X190870318Y-108527254D01*
X190814988Y-108569920D01*
X190745375Y-108575899D01*
X190683580Y-108543293D01*
X190669682Y-108527254D01*
X190568247Y-108387641D01*
X190568243Y-108387636D01*
X190412363Y-108231756D01*
X190412358Y-108231752D01*
X190234025Y-108102187D01*
X190234024Y-108102186D01*
X190234022Y-108102185D01*
X190116791Y-108042452D01*
X190037606Y-108002104D01*
X190037603Y-108002103D01*
X189827952Y-107933985D01*
X189706045Y-107914677D01*
X189610222Y-107899500D01*
X189389778Y-107899500D01*
X189317201Y-107910995D01*
X189172047Y-107933985D01*
X188962396Y-108002103D01*
X188962393Y-108002104D01*
X188765974Y-108102187D01*
X188587641Y-108231752D01*
X188587636Y-108231756D01*
X188543293Y-108276099D01*
X188481970Y-108309583D01*
X188412278Y-108304598D01*
X188356345Y-108262726D01*
X188339431Y-108231750D01*
X188310447Y-108154040D01*
X188310445Y-108154038D01*
X188222903Y-108037096D01*
X188105961Y-107949554D01*
X188105961Y-107949553D01*
X187969097Y-107898506D01*
X187908581Y-107892000D01*
X187214000Y-107892000D01*
X187214000Y-109069297D01*
X187152993Y-109034075D01*
X187025826Y-109000000D01*
X186894174Y-109000000D01*
X186767007Y-109034075D01*
X186706000Y-109069297D01*
X186706000Y-107892000D01*
X186011418Y-107892000D01*
X185950902Y-107898506D01*
X185814038Y-107949553D01*
X185814038Y-107949554D01*
X185697096Y-108037096D01*
X185609554Y-108154038D01*
X185609553Y-108154038D01*
X185558506Y-108290902D01*
X185552000Y-108351418D01*
X185552000Y-109246000D01*
X186529297Y-109246000D01*
X186494075Y-109307007D01*
X186460000Y-109434174D01*
X186460000Y-109565826D01*
X186494075Y-109692993D01*
X186529297Y-109754000D01*
X185552000Y-109754000D01*
X185552000Y-110648581D01*
X185558506Y-110709097D01*
X185609553Y-110845961D01*
X185697096Y-110962903D01*
X185814038Y-111050445D01*
X185814038Y-111050446D01*
X185950902Y-111101493D01*
X186011418Y-111107999D01*
X186011420Y-111108000D01*
X186706000Y-111108000D01*
X186706000Y-109930702D01*
X186767007Y-109965925D01*
X186894174Y-110000000D01*
X187025826Y-110000000D01*
X187152993Y-109965925D01*
X187214000Y-109930702D01*
X187214000Y-111108000D01*
X187908580Y-111108000D01*
X187908581Y-111107999D01*
X187969097Y-111101493D01*
X188105961Y-111050446D01*
X188105961Y-111050445D01*
X188222903Y-110962903D01*
X188310445Y-110845961D01*
X188314697Y-110838177D01*
X188316623Y-110839228D01*
X188351186Y-110793055D01*
X188416650Y-110768636D01*
X188484923Y-110783486D01*
X188534330Y-110832889D01*
X188549500Y-110892320D01*
X188549500Y-111593621D01*
X188586024Y-111777242D01*
X188586027Y-111777251D01*
X188657673Y-111950223D01*
X188657680Y-111950236D01*
X188761697Y-112105907D01*
X188761700Y-112105911D01*
X189394088Y-112738299D01*
X189394092Y-112738302D01*
X189549763Y-112842319D01*
X189549765Y-112842320D01*
X189549770Y-112842323D01*
X189651099Y-112884294D01*
X189722749Y-112913973D01*
X189754370Y-112920262D01*
X189814517Y-112932227D01*
X189814550Y-112932232D01*
X189814566Y-112932236D01*
X189875777Y-112944412D01*
X189906382Y-112950500D01*
X189906383Y-112950500D01*
X189906384Y-112950500D01*
X195365864Y-112950500D01*
X195432903Y-112970185D01*
X195478658Y-113022989D01*
X195488602Y-113092147D01*
X195459577Y-113155703D01*
X195442337Y-113172111D01*
X195422744Y-113187460D01*
X195187460Y-113422744D01*
X194982251Y-113684673D01*
X194810101Y-113969445D01*
X194810100Y-113969447D01*
X194673536Y-114272880D01*
X194673530Y-114272895D01*
X194574546Y-114590550D01*
X194514563Y-114917863D01*
X194494473Y-115250000D01*
X194514563Y-115582136D01*
X194514563Y-115582141D01*
X194514564Y-115582142D01*
X194574544Y-115909441D01*
X194574545Y-115909445D01*
X194574546Y-115909449D01*
X194673530Y-116227104D01*
X194673534Y-116227116D01*
X194673537Y-116227123D01*
X194810102Y-116530557D01*
X194982246Y-116815318D01*
X194982251Y-116815326D01*
X195187460Y-117077255D01*
X195398024Y-117287819D01*
X195431509Y-117349142D01*
X195426525Y-117418834D01*
X195384653Y-117474767D01*
X195319189Y-117499184D01*
X195310343Y-117499500D01*
X145689657Y-117499500D01*
X145622618Y-117479815D01*
X145576863Y-117427011D01*
X145566919Y-117357853D01*
X145595944Y-117294297D01*
X145601976Y-117287819D01*
X145812539Y-117077255D01*
X145812542Y-117077252D01*
X145957881Y-116891740D01*
X146017748Y-116815326D01*
X146017748Y-116815324D01*
X146017754Y-116815318D01*
X146189898Y-116530557D01*
X146326463Y-116227123D01*
X146425456Y-115909441D01*
X146485436Y-115582142D01*
X146505527Y-115250000D01*
X146485436Y-114917858D01*
X146425456Y-114590559D01*
X146326463Y-114272877D01*
X146189898Y-113969443D01*
X146017754Y-113684682D01*
X146017751Y-113684678D01*
X146017748Y-113684673D01*
X145812539Y-113422744D01*
X145577255Y-113187460D01*
X145315326Y-112982251D01*
X145315318Y-112982246D01*
X145030557Y-112810102D01*
X144727123Y-112673537D01*
X144727116Y-112673534D01*
X144727104Y-112673530D01*
X144409449Y-112574546D01*
X144409445Y-112574545D01*
X144409441Y-112574544D01*
X144082142Y-112514564D01*
X144082141Y-112514563D01*
X144082136Y-112514563D01*
X143750000Y-112494473D01*
X143417863Y-112514563D01*
X143417858Y-112514564D01*
X143090559Y-112574544D01*
X143090556Y-112574544D01*
X143090550Y-112574546D01*
X142772895Y-112673530D01*
X142772879Y-112673536D01*
X142772877Y-112673537D01*
X142628982Y-112738299D01*
X142469447Y-112810100D01*
X142469445Y-112810101D01*
X142184673Y-112982251D01*
X141922744Y-113187460D01*
X141712181Y-113398024D01*
X141650858Y-113431509D01*
X141581166Y-113426525D01*
X141525233Y-113384653D01*
X141500816Y-113319189D01*
X141500500Y-113310343D01*
X141500500Y-110052135D01*
X147399500Y-110052135D01*
X147399500Y-111947870D01*
X147399501Y-111947876D01*
X147405908Y-112007483D01*
X147456202Y-112142328D01*
X147456206Y-112142335D01*
X147542452Y-112257544D01*
X147542455Y-112257547D01*
X147657664Y-112343793D01*
X147657671Y-112343797D01*
X147792517Y-112394091D01*
X147792516Y-112394091D01*
X147799444Y-112394835D01*
X147852127Y-112400500D01*
X149004926Y-112400499D01*
X149071965Y-112420184D01*
X149092607Y-112436818D01*
X149394088Y-112738299D01*
X149394092Y-112738302D01*
X149549763Y-112842319D01*
X149549765Y-112842320D01*
X149549770Y-112842323D01*
X149651099Y-112884294D01*
X149722749Y-112913973D01*
X149906379Y-112950499D01*
X149906383Y-112950500D01*
X149906384Y-112950500D01*
X156417038Y-112950500D01*
X156484077Y-112970185D01*
X156508264Y-112990514D01*
X156548216Y-113033913D01*
X156698937Y-113151223D01*
X156725773Y-113172111D01*
X156731374Y-113176470D01*
X156935497Y-113286936D01*
X157029447Y-113319189D01*
X157155015Y-113362297D01*
X157155017Y-113362297D01*
X157155019Y-113362298D01*
X157383951Y-113400500D01*
X157383952Y-113400500D01*
X157616048Y-113400500D01*
X157616049Y-113400500D01*
X157844981Y-113362298D01*
X158064503Y-113286936D01*
X158268626Y-113176470D01*
X158451784Y-113033913D01*
X158491733Y-112990515D01*
X158551619Y-112954527D01*
X158582962Y-112950500D01*
X179633618Y-112950500D01*
X179651980Y-112946847D01*
X179725433Y-112932236D01*
X179725434Y-112932236D01*
X179748545Y-112927638D01*
X179817251Y-112913973D01*
X179888901Y-112884294D01*
X179990230Y-112842323D01*
X180145908Y-112738302D01*
X180778302Y-112105908D01*
X180882323Y-111950230D01*
X180953973Y-111777250D01*
X180990500Y-111593617D01*
X180990500Y-111406383D01*
X180990500Y-111201439D01*
X181010185Y-111134400D01*
X181062989Y-111088645D01*
X181071168Y-111085257D01*
X181182326Y-111043798D01*
X181182326Y-111043797D01*
X181182331Y-111043796D01*
X181297546Y-110957546D01*
X181383796Y-110842331D01*
X181434091Y-110707483D01*
X181440500Y-110647873D01*
X181440499Y-108352128D01*
X181434232Y-108293830D01*
X181434091Y-108292516D01*
X181383797Y-108157671D01*
X181383793Y-108157664D01*
X181297547Y-108042455D01*
X181297544Y-108042452D01*
X181182335Y-107956206D01*
X181182328Y-107956202D01*
X181047482Y-107905908D01*
X181047483Y-107905908D01*
X180987883Y-107899501D01*
X180987881Y-107899500D01*
X180987873Y-107899500D01*
X180987864Y-107899500D01*
X179092129Y-107899500D01*
X179092123Y-107899501D01*
X179032516Y-107905908D01*
X178897671Y-107956202D01*
X178897664Y-107956206D01*
X178782455Y-108042452D01*
X178782452Y-108042455D01*
X178696206Y-108157664D01*
X178696203Y-108157670D01*
X178669279Y-108229856D01*
X178627407Y-108285790D01*
X178561942Y-108310206D01*
X178493669Y-108295354D01*
X178465416Y-108274203D01*
X178417253Y-108226040D01*
X178237953Y-108095770D01*
X178040486Y-107995156D01*
X177829703Y-107926668D01*
X177754000Y-107914677D01*
X177754000Y-109069297D01*
X177692993Y-109034075D01*
X177565826Y-109000000D01*
X177434174Y-109000000D01*
X177307007Y-109034075D01*
X177246000Y-109069297D01*
X177246000Y-107914677D01*
X177170296Y-107926668D01*
X176959513Y-107995156D01*
X176762046Y-108095770D01*
X176582747Y-108226040D01*
X176582746Y-108226040D01*
X176426040Y-108382746D01*
X176426040Y-108382747D01*
X176295770Y-108562046D01*
X176195156Y-108759511D01*
X176126668Y-108970292D01*
X176092000Y-109189182D01*
X176092000Y-109246000D01*
X177069297Y-109246000D01*
X177034075Y-109307007D01*
X177000000Y-109434174D01*
X177000000Y-109565826D01*
X177034075Y-109692993D01*
X177069297Y-109754000D01*
X176092000Y-109754000D01*
X176092000Y-109810817D01*
X176126668Y-110029707D01*
X176195156Y-110240488D01*
X176295770Y-110437953D01*
X176426040Y-110617252D01*
X176426040Y-110617253D01*
X176582746Y-110773959D01*
X176653248Y-110825182D01*
X176695913Y-110880512D01*
X176701892Y-110950125D01*
X176669286Y-111011920D01*
X176608447Y-111046278D01*
X176580362Y-111049500D01*
X158582962Y-111049500D01*
X158515923Y-111029815D01*
X158491735Y-111009485D01*
X158451784Y-110966087D01*
X158322524Y-110865480D01*
X158268628Y-110823531D01*
X158064504Y-110713064D01*
X158064495Y-110713061D01*
X157844984Y-110637702D01*
X157673282Y-110609050D01*
X157616049Y-110599500D01*
X157383951Y-110599500D01*
X157338164Y-110607140D01*
X157155015Y-110637702D01*
X156935504Y-110713061D01*
X156935495Y-110713064D01*
X156731371Y-110823531D01*
X156642992Y-110892320D01*
X156548216Y-110966087D01*
X156508266Y-111009484D01*
X156448381Y-111045473D01*
X156417038Y-111049500D01*
X150724500Y-111049500D01*
X150657461Y-111029815D01*
X150611706Y-110977011D01*
X150600500Y-110925500D01*
X150600499Y-110052129D01*
X150600498Y-110052123D01*
X150600497Y-110052116D01*
X150594091Y-109992517D01*
X150559621Y-109900099D01*
X150543797Y-109857671D01*
X150543793Y-109857664D01*
X150457547Y-109742455D01*
X150457544Y-109742452D01*
X150342335Y-109656206D01*
X150342330Y-109656203D01*
X150270143Y-109629279D01*
X150214210Y-109587407D01*
X150189793Y-109521943D01*
X150204645Y-109453670D01*
X150225797Y-109425415D01*
X150273959Y-109377253D01*
X150273959Y-109377252D01*
X150404229Y-109197953D01*
X150504843Y-109000486D01*
X150573331Y-108789703D01*
X150585322Y-108714000D01*
X149430703Y-108714000D01*
X149465925Y-108652993D01*
X149500000Y-108525826D01*
X149500000Y-108394174D01*
X149465925Y-108267007D01*
X149430703Y-108206000D01*
X150585322Y-108206000D01*
X150573331Y-108130296D01*
X150504843Y-107919513D01*
X150404229Y-107722046D01*
X150273959Y-107542747D01*
X150273959Y-107542746D01*
X150117253Y-107386040D01*
X149937953Y-107255770D01*
X149740488Y-107155156D01*
X149529707Y-107086668D01*
X149310817Y-107052000D01*
X149254000Y-107052000D01*
X149254000Y-108029297D01*
X149192993Y-107994075D01*
X149065826Y-107960000D01*
X148934174Y-107960000D01*
X148807007Y-107994075D01*
X148746000Y-108029297D01*
X148746000Y-107052000D01*
X148689183Y-107052000D01*
X148470292Y-107086668D01*
X148259511Y-107155156D01*
X148062046Y-107255770D01*
X147882747Y-107386040D01*
X147882746Y-107386040D01*
X147726040Y-107542746D01*
X147726040Y-107542747D01*
X147595770Y-107722046D01*
X147495156Y-107919513D01*
X147426668Y-108130296D01*
X147414678Y-108206000D01*
X148569297Y-108206000D01*
X148534075Y-108267007D01*
X148500000Y-108394174D01*
X148500000Y-108525826D01*
X148534075Y-108652993D01*
X148569297Y-108714000D01*
X147414678Y-108714000D01*
X147426668Y-108789703D01*
X147495156Y-109000486D01*
X147595770Y-109197953D01*
X147726040Y-109377252D01*
X147726040Y-109377253D01*
X147774203Y-109425416D01*
X147807688Y-109486739D01*
X147802704Y-109556431D01*
X147760832Y-109612364D01*
X147729856Y-109629279D01*
X147657670Y-109656203D01*
X147657664Y-109656206D01*
X147542455Y-109742452D01*
X147542452Y-109742455D01*
X147456206Y-109857664D01*
X147456202Y-109857671D01*
X147405908Y-109992517D01*
X147402099Y-110027951D01*
X147399501Y-110052123D01*
X147399500Y-110052135D01*
X141500500Y-110052135D01*
X141500500Y-106999994D01*
X156087174Y-106999994D01*
X156087174Y-107000005D01*
X156106441Y-107232535D01*
X156106443Y-107232547D01*
X156163724Y-107458744D01*
X156257455Y-107672427D01*
X156340797Y-107799992D01*
X157100000Y-107040789D01*
X157100000Y-107052661D01*
X157127259Y-107154394D01*
X157179920Y-107245606D01*
X157254394Y-107320080D01*
X157345606Y-107372741D01*
X157447339Y-107400000D01*
X157459210Y-107400000D01*
X156698680Y-108160528D01*
X156727259Y-108182772D01*
X156727261Y-108182773D01*
X156932467Y-108293824D01*
X156932481Y-108293830D01*
X157153169Y-108369593D01*
X157383330Y-108408000D01*
X157616670Y-108408000D01*
X157846830Y-108369593D01*
X158067518Y-108293830D01*
X158067532Y-108293824D01*
X158272739Y-108182772D01*
X158272744Y-108182769D01*
X158301318Y-108160529D01*
X158301319Y-108160528D01*
X157540790Y-107400000D01*
X157552661Y-107400000D01*
X157654394Y-107372741D01*
X157745606Y-107320080D01*
X157820080Y-107245606D01*
X157872741Y-107154394D01*
X157900000Y-107052661D01*
X157900000Y-107040790D01*
X158659201Y-107799992D01*
X158742540Y-107672434D01*
X158742545Y-107672426D01*
X158836275Y-107458744D01*
X158893556Y-107232547D01*
X158893558Y-107232535D01*
X158912826Y-107000005D01*
X158912826Y-106999994D01*
X158893558Y-106767464D01*
X158893556Y-106767452D01*
X158836275Y-106541255D01*
X158742542Y-106327567D01*
X158659201Y-106200006D01*
X157900000Y-106959208D01*
X157900000Y-106947339D01*
X157872741Y-106845606D01*
X157820080Y-106754394D01*
X157745606Y-106679920D01*
X157654394Y-106627259D01*
X157552661Y-106600000D01*
X157540791Y-106600000D01*
X158301319Y-105839471D01*
X158301319Y-105839470D01*
X158272742Y-105817229D01*
X158272739Y-105817227D01*
X158067532Y-105706175D01*
X158067518Y-105706169D01*
X157846830Y-105630406D01*
X157616670Y-105592000D01*
X157383330Y-105592000D01*
X157153169Y-105630406D01*
X156932481Y-105706169D01*
X156932467Y-105706175D01*
X156727255Y-105817230D01*
X156698680Y-105839469D01*
X156698680Y-105839470D01*
X157459210Y-106600000D01*
X157447339Y-106600000D01*
X157345606Y-106627259D01*
X157254394Y-106679920D01*
X157179920Y-106754394D01*
X157127259Y-106845606D01*
X157100000Y-106947339D01*
X157100000Y-106959210D01*
X156340796Y-106200006D01*
X156257456Y-106327569D01*
X156163724Y-106541255D01*
X156106443Y-106767452D01*
X156106441Y-106767464D01*
X156087174Y-106999994D01*
X141500500Y-106999994D01*
X141500500Y-73889657D01*
X141520185Y-73822618D01*
X141572989Y-73776863D01*
X141642147Y-73766919D01*
X141705703Y-73795944D01*
X141712181Y-73801976D01*
X141922744Y-74012539D01*
X142184673Y-74217748D01*
X142184678Y-74217751D01*
X142184682Y-74217754D01*
X142469443Y-74389898D01*
X142772877Y-74526463D01*
X142772890Y-74526467D01*
X142772895Y-74526469D01*
X142984665Y-74592458D01*
X143090559Y-74625456D01*
X143417858Y-74685436D01*
X143750000Y-74705527D01*
X144082142Y-74685436D01*
X144409441Y-74625456D01*
X144727123Y-74526463D01*
X145030557Y-74389898D01*
X145315318Y-74217754D01*
X145577252Y-74012542D01*
X145812542Y-73777252D01*
X145957881Y-73591740D01*
X146017748Y-73515326D01*
X146017748Y-73515324D01*
X146017754Y-73515318D01*
X146189898Y-73230557D01*
X146326463Y-72927123D01*
X146425456Y-72609441D01*
X146485436Y-72282142D01*
X146505527Y-71950000D01*
X146485436Y-71617858D01*
X146425456Y-71290559D01*
X146326463Y-70972877D01*
X146189898Y-70669443D01*
X146017754Y-70384682D01*
X146017751Y-70384678D01*
X146017748Y-70384673D01*
X145812539Y-70122744D01*
X145601976Y-69912181D01*
X145568491Y-69850858D01*
X145573475Y-69781166D01*
X145615347Y-69725233D01*
X145680811Y-69700816D01*
X145689657Y-69700500D01*
X195310343Y-69700500D01*
X195377382Y-69720185D01*
G37*
%TD.AperFunction*%
%TD*%
%TA.AperFunction,NonConductor*%
G36*
X199418834Y-73773475D02*
G01*
X199474767Y-73815347D01*
X199499184Y-73880811D01*
X199499500Y-73889657D01*
X199499500Y-88376228D01*
X199479815Y-88443267D01*
X199427011Y-88489022D01*
X199357853Y-88498966D01*
X199294297Y-88469941D01*
X199272398Y-88445119D01*
X199238303Y-88394093D01*
X199220438Y-88376228D01*
X199105908Y-88261698D01*
X189366819Y-78522609D01*
X189333334Y-78461286D01*
X189330500Y-78434928D01*
X189330500Y-77240047D01*
X189350185Y-77173008D01*
X189366819Y-77152366D01*
X189367078Y-77152107D01*
X189371966Y-77147219D01*
X189371968Y-77147215D01*
X189371971Y-77147213D01*
X189492284Y-76981614D01*
X189492285Y-76981613D01*
X189492287Y-76981610D01*
X189539516Y-76888917D01*
X189587489Y-76838123D01*
X189655310Y-76821328D01*
X189721445Y-76843865D01*
X189760483Y-76888917D01*
X189804348Y-76975006D01*
X189807715Y-76981614D01*
X189928028Y-77147213D01*
X190072786Y-77291971D01*
X190227749Y-77404556D01*
X190238390Y-77412287D01*
X190354607Y-77471503D01*
X190420776Y-77505218D01*
X190420778Y-77505218D01*
X190420781Y-77505220D01*
X190525137Y-77539127D01*
X190615465Y-77568477D01*
X190713934Y-77584073D01*
X190817648Y-77600500D01*
X190817649Y-77600500D01*
X191022351Y-77600500D01*
X191022352Y-77600500D01*
X191224534Y-77568477D01*
X191419219Y-77505220D01*
X191601610Y-77412287D01*
X191694590Y-77344732D01*
X191767213Y-77291971D01*
X191767215Y-77291968D01*
X191767219Y-77291966D01*
X191911966Y-77147219D01*
X191911968Y-77147215D01*
X191911971Y-77147213D01*
X192032284Y-76981614D01*
X192032285Y-76981613D01*
X192032287Y-76981610D01*
X192079516Y-76888917D01*
X192127489Y-76838123D01*
X192195310Y-76821328D01*
X192261445Y-76843865D01*
X192300483Y-76888917D01*
X192344348Y-76975006D01*
X192347715Y-76981614D01*
X192468028Y-77147213D01*
X192612786Y-77291971D01*
X192767749Y-77404556D01*
X192778390Y-77412287D01*
X192894607Y-77471503D01*
X192960776Y-77505218D01*
X192960778Y-77505218D01*
X192960781Y-77505220D01*
X193065137Y-77539127D01*
X193155465Y-77568477D01*
X193253934Y-77584073D01*
X193357648Y-77600500D01*
X193357649Y-77600500D01*
X193562351Y-77600500D01*
X193562352Y-77600500D01*
X193764534Y-77568477D01*
X193959219Y-77505220D01*
X194141610Y-77412287D01*
X194234590Y-77344732D01*
X194307213Y-77291971D01*
X194307215Y-77291968D01*
X194307219Y-77291966D01*
X194451966Y-77147219D01*
X194451968Y-77147215D01*
X194451971Y-77147213D01*
X194572284Y-76981614D01*
X194572285Y-76981613D01*
X194572287Y-76981610D01*
X194619516Y-76888917D01*
X194667489Y-76838123D01*
X194735310Y-76821328D01*
X194801445Y-76843865D01*
X194840483Y-76888917D01*
X194884348Y-76975006D01*
X194887715Y-76981614D01*
X195008028Y-77147213D01*
X195152786Y-77291971D01*
X195307749Y-77404556D01*
X195318390Y-77412287D01*
X195434607Y-77471503D01*
X195500776Y-77505218D01*
X195500778Y-77505218D01*
X195500781Y-77505220D01*
X195605137Y-77539127D01*
X195695465Y-77568477D01*
X195793934Y-77584073D01*
X195897648Y-77600500D01*
X195897649Y-77600500D01*
X196102351Y-77600500D01*
X196102352Y-77600500D01*
X196304534Y-77568477D01*
X196499219Y-77505220D01*
X196681610Y-77412287D01*
X196774590Y-77344732D01*
X196847213Y-77291971D01*
X196847215Y-77291968D01*
X196847219Y-77291966D01*
X196991966Y-77147219D01*
X196991968Y-77147215D01*
X196991971Y-77147213D01*
X197044732Y-77074590D01*
X197112287Y-76981610D01*
X197205220Y-76799219D01*
X197268477Y-76604534D01*
X197300500Y-76402352D01*
X197300500Y-75797648D01*
X197268477Y-75595466D01*
X197267905Y-75593707D01*
X197205218Y-75400776D01*
X197155305Y-75302818D01*
X197112287Y-75218390D01*
X197104556Y-75207749D01*
X196991971Y-75052786D01*
X196847217Y-74908032D01*
X196843506Y-74904862D01*
X196844900Y-74903229D01*
X196807696Y-74855014D01*
X196801694Y-74785402D01*
X196834279Y-74723597D01*
X196895107Y-74689220D01*
X196930719Y-74686214D01*
X196945501Y-74687108D01*
X197250000Y-74705527D01*
X197582142Y-74685436D01*
X197909441Y-74625456D01*
X198227123Y-74526463D01*
X198530557Y-74389898D01*
X198815318Y-74217754D01*
X199077252Y-74012542D01*
X199077255Y-74012539D01*
X199287819Y-73801976D01*
X199349142Y-73768491D01*
X199418834Y-73773475D01*
G37*
%TD.AperFunction*%
%TA.AperFunction,NonConductor*%
G36*
X194801445Y-102243865D02*
G01*
X194840485Y-102288919D01*
X194887715Y-102381614D01*
X195008028Y-102547213D01*
X195013181Y-102552366D01*
X195046666Y-102613689D01*
X195049500Y-102640047D01*
X195049500Y-107634927D01*
X195029815Y-107701966D01*
X195013181Y-107722609D01*
X194860993Y-107874796D01*
X194799670Y-107908280D01*
X194753914Y-107909587D01*
X194690226Y-107899500D01*
X194690222Y-107899500D01*
X194469778Y-107899500D01*
X194397201Y-107910995D01*
X194252047Y-107933985D01*
X194042396Y-108002103D01*
X194042393Y-108002104D01*
X193845974Y-108102187D01*
X193667641Y-108231752D01*
X193667636Y-108231756D01*
X193511756Y-108387636D01*
X193511752Y-108387641D01*
X193410318Y-108527254D01*
X193354988Y-108569920D01*
X193285375Y-108575899D01*
X193223580Y-108543293D01*
X193209682Y-108527254D01*
X193108247Y-108387641D01*
X193108243Y-108387636D01*
X193090089Y-108369482D01*
X193056604Y-108308159D01*
X193061588Y-108238467D01*
X193090089Y-108194120D01*
X193597919Y-107686290D01*
X194198301Y-107085909D01*
X194217165Y-107057678D01*
X194220518Y-107052661D01*
X194302318Y-106930237D01*
X194302318Y-106930236D01*
X194302322Y-106930231D01*
X194373973Y-106757251D01*
X194410500Y-106573616D01*
X194410500Y-102640047D01*
X194430185Y-102573008D01*
X194446819Y-102552366D01*
X194451966Y-102547219D01*
X194451968Y-102547215D01*
X194451971Y-102547213D01*
X194572284Y-102381614D01*
X194572285Y-102381613D01*
X194572287Y-102381610D01*
X194619516Y-102288917D01*
X194667489Y-102238123D01*
X194735310Y-102221328D01*
X194801445Y-102243865D01*
G37*
%TD.AperFunction*%
%TA.AperFunction,NonConductor*%
G36*
X193396420Y-110456705D02*
G01*
X193410318Y-110472745D01*
X193511752Y-110612358D01*
X193511756Y-110612363D01*
X193667636Y-110768243D01*
X193667641Y-110768247D01*
X193746005Y-110825182D01*
X193788671Y-110880512D01*
X193794650Y-110950125D01*
X193762044Y-111011920D01*
X193701206Y-111046277D01*
X193673120Y-111049500D01*
X192946880Y-111049500D01*
X192879841Y-111029815D01*
X192834086Y-110977011D01*
X192824142Y-110907853D01*
X192853167Y-110844297D01*
X192873995Y-110825182D01*
X192952358Y-110768247D01*
X192952356Y-110768247D01*
X192952365Y-110768242D01*
X193108242Y-110612365D01*
X193118804Y-110597826D01*
X193209682Y-110472745D01*
X193265011Y-110430079D01*
X193334625Y-110424100D01*
X193396420Y-110456705D01*
G37*
%TD.AperFunction*%
%TA.AperFunction,NonConductor*%
G36*
X190856420Y-110456705D02*
G01*
X190870318Y-110472745D01*
X190971752Y-110612358D01*
X190971756Y-110612363D01*
X191127636Y-110768243D01*
X191127641Y-110768247D01*
X191206005Y-110825182D01*
X191248671Y-110880512D01*
X191254650Y-110950125D01*
X191222044Y-111011920D01*
X191161206Y-111046277D01*
X191133120Y-111049500D01*
X190574500Y-111049500D01*
X190507461Y-111029815D01*
X190461706Y-110977011D01*
X190450500Y-110925500D01*
X190450500Y-110781469D01*
X190470185Y-110714430D01*
X190486819Y-110693788D01*
X190568242Y-110612365D01*
X190578804Y-110597826D01*
X190669682Y-110472745D01*
X190725011Y-110430079D01*
X190794625Y-110424100D01*
X190856420Y-110456705D01*
G37*
%TD.AperFunction*%
%TA.AperFunction,NonConductor*%
G36*
X199458362Y-110031522D02*
G01*
X199495082Y-110090965D01*
X199499500Y-110123771D01*
X199499500Y-113310343D01*
X199479815Y-113377382D01*
X199427011Y-113423137D01*
X199357853Y-113433081D01*
X199294297Y-113404056D01*
X199287819Y-113398024D01*
X199077255Y-113187460D01*
X198815326Y-112982251D01*
X198815318Y-112982246D01*
X198530557Y-112810102D01*
X198227123Y-112673537D01*
X198227116Y-112673534D01*
X198227104Y-112673530D01*
X197909449Y-112574546D01*
X197909445Y-112574545D01*
X197909441Y-112574544D01*
X197582142Y-112514564D01*
X197582141Y-112514563D01*
X197582136Y-112514563D01*
X197278800Y-112496215D01*
X197250000Y-112494473D01*
X197249999Y-112494473D01*
X197191514Y-112498010D01*
X197150329Y-112500501D01*
X197082224Y-112484901D01*
X197033365Y-112434956D01*
X197019264Y-112366524D01*
X197044398Y-112301332D01*
X197055162Y-112289047D01*
X198142771Y-111201439D01*
X199238302Y-110105908D01*
X199272398Y-110054880D01*
X199326010Y-110010075D01*
X199395335Y-110001368D01*
X199458362Y-110031522D01*
G37*
%TD.AperFunction*%
M02*
